<?xml version="1.0" standalone="no"?>
<!DOCTYPE svg PUBLIC "-//W3C//DTD SVG 20010904//EN"
 "http://www.w3.org/TR/2001/REC-SVG-20010904/DTD/svg10.dtd">
<svg version="1.0" xmlns="http://www.w3.org/2000/svg"
 width="728.000000pt" height="728.000000pt" viewBox="0 0 728.000000 728.000000"
 preserveAspectRatio="xMidYMid meet">

<g transform="translate(0.000000,728.000000) scale(0.100000,-0.100000)"
fill="#000000" stroke="none">
<path d="M3848 6795 c-3 -3 -47 -8 -99 -11 -52 -3 -100 -11 -108 -18 -12 -9
-13 -8 -7 2 7 11 4 12 -10 4 -11 -5 -43 -13 -71 -17 -29 -4 -55 -11 -58 -16
-3 -4 -11 -6 -18 -4 -7 2 -28 0 -47 -4 -34 -9 -33 -9 18 -10 29 -1 52 3 52 9
0 12 47 13 54 1 4 -5 -3 -7 -14 -4 -11 3 -20 1 -20 -5 0 -6 19 -12 43 -14 23
-2 -8 -3 -69 -3 -90 0 -110 3 -106 14 4 11 1 11 -16 2 -11 -6 -32 -11 -46 -11
-33 0 -42 -17 -20 -41 9 -10 12 -19 6 -19 -6 0 -14 5 -17 10 -4 6 -21 9 -38 7
-18 -2 -24 -2 -15 0 9 2 21 10 27 17 12 15 -62 -7 -189 -54 -175 -65 -237 -94
-246 -114 -10 -23 -43 -41 -89 -50 l-30 -6 30 12 c39 15 93 48 79 48 -6 0 -36
-12 -66 -28 -40 -20 -52 -30 -44 -38 6 -6 18 -8 25 -6 10 3 12 -1 8 -17 -3
-11 -1 -24 4 -27 23 -14 5 -24 -42 -24 l-51 0 17 26 c9 15 12 23 6 20 -6 -4
-11 -2 -11 4 0 6 -19 1 -42 -11 -24 -12 -37 -24 -31 -26 7 -3 23 3 35 11 29
21 47 21 26 0 -9 -9 -35 -18 -58 -19 -23 -1 -45 -7 -49 -12 -3 -6 -21 -18 -39
-27 -18 -9 -41 -25 -50 -34 -9 -9 -40 -32 -67 -50 -74 -48 -112 -83 -97 -89
13 -5 7 -23 -9 -23 -6 0 -7 5 -3 11 4 7 1 10 -6 7 -16 -5 -22 -36 -9 -44 5 -3
7 -10 3 -15 -3 -5 -10 -7 -15 -3 -6 3 -21 -4 -34 -16 -15 -14 -30 -20 -41 -16
-14 5 -15 4 -4 -9 11 -13 10 -14 -4 -9 -19 7 -66 -31 -66 -53 0 -9 -5 -11 -12
-7 -9 5 -8 2 1 -9 12 -15 12 -17 -3 -11 -21 8 -49 -15 -41 -33 3 -8 -1 -21 -9
-29 -22 -22 -31 -17 -11 6 10 11 14 20 9 20 -5 0 -16 -8 -25 -18 -38 -45 -122
-158 -127 -172 -3 -8 -20 -33 -37 -55 -48 -61 -76 -111 -70 -127 3 -8 2 -25
-3 -37 -5 -13 -5 -43 -2 -67 7 -48 4 -53 -16 -26 -13 16 -13 16 -14 0 0 -10
-4 -18 -8 -18 -5 0 -7 14 -4 30 3 18 10 30 19 30 10 0 13 6 9 16 -3 8 -1 25 5
36 6 11 8 22 5 25 -8 9 -56 -104 -56 -132 0 -13 -5 -36 -10 -50 -7 -18 -7 -33
1 -47 8 -15 8 -19 0 -14 -7 5 -11 -1 -11 -14 0 -12 -4 -19 -9 -16 -4 3 -5 23
-1 43 4 21 11 54 14 73 l6 35 -16 -40 c-9 -22 -20 -53 -24 -70 -4 -16 -11 -38
-15 -49 -6 -14 -5 -17 6 -14 21 8 69 -19 106 -58 41 -44 29 -44 -17 -1 -19 19
-46 39 -60 46 l-25 12 25 -21 c45 -39 64 -55 109 -90 25 -19 54 -44 66 -55 33
-31 65 -55 73 -55 4 0 25 -18 46 -40 22 -22 41 -38 43 -36 8 7 -10 36 -22 36
-8 0 -16 4 -19 8 -2 4 18 9 45 10 27 1 49 -2 49 -8 0 -5 -11 -10 -25 -10 -30
0 -32 -10 -5 -33 12 -10 18 -21 16 -26 -8 -12 23 -36 32 -26 4 4 1 10 -7 13
-11 4 -11 6 0 12 10 7 10 12 0 23 -9 11 -9 17 -1 22 6 4 13 5 15 3 6 -6 9 -61
4 -74 -6 -16 112 -116 129 -109 10 4 12 0 8 -11 -5 -12 -2 -15 9 -10 9 3 13 2
10 -3 -3 -6 10 -21 28 -35 46 -35 55 -33 15 4 -18 16 -28 30 -22 30 15 0 66
-55 62 -67 -3 -10 67 -73 81 -73 3 0 -7 11 -23 23 -24 20 -26 25 -13 30 9 3
16 3 16 -1 -4 -21 3 -22 22 -1 l20 24 -14 -25 c-13 -22 -13 -28 2 -54 9 -16
23 -32 30 -34 9 -3 11 0 6 8 -5 9 -4 11 4 6 6 -4 9 -11 6 -16 -7 -12 72 -73
85 -65 12 7 58 -19 77 -44 7 -9 12 -11 13 -4 0 6 3 20 6 30 5 14 4 15 -4 4 -9
-12 -13 -12 -26 2 -19 19 -7 24 40 19 19 -2 31 -8 28 -13 -3 -5 -9 -7 -13 -4
-5 2 -15 -13 -23 -34 -17 -42 -8 -64 20 -54 10 4 13 2 8 -5 -9 -15 44 -63 64
-57 8 3 22 0 30 -6 11 -8 9 -9 -10 -3 -25 7 -25 7 -6 -15 11 -11 21 -21 23
-21 2 0 12 18 22 40 10 22 21 37 26 32 4 -4 5 1 2 11 -8 22 2 45 12 29 3 -6
16 5 29 24 12 19 18 34 12 34 -6 0 -15 -11 -20 -26 -14 -36 -42 -18 -45 29 -1
29 1 33 11 22 7 -7 10 -22 7 -34 -3 -12 -1 -21 6 -21 6 0 11 9 11 20 0 14 7
20 23 20 14 0 29 10 39 28 10 15 28 40 42 55 18 21 24 37 21 63 -3 36 10 53
27 36 8 -8 7 -16 -2 -27 -7 -8 -8 -15 -2 -15 5 0 19 18 30 40 11 23 24 40 28
40 5 -1 10 4 13 11 2 7 -1 9 -8 5 -7 -5 -9 -1 -5 8 4 9 0 18 -10 22 -14 5 -14
8 0 21 8 9 18 12 22 9 3 -4 0 -11 -7 -15 -8 -5 -9 -11 -3 -15 5 -3 15 1 22 9
11 13 9 20 -10 40 -13 14 -20 28 -17 32 4 3 7 1 7 -7 0 -10 3 -10 15 0 13 10
15 9 15 -8 0 -16 4 -20 16 -15 14 5 14 3 2 -18 -7 -13 -20 -29 -28 -35 -8 -7
-11 -16 -7 -21 5 -4 13 1 19 12 6 10 44 53 84 94 49 52 69 80 63 87 -13 15 -1
44 18 44 13 0 13 -3 3 -15 -7 -9 -10 -18 -6 -22 9 -10 41 24 41 44 0 9 7 18
15 20 13 4 13 3 0 -6 -8 -5 -11 -13 -7 -17 4 -4 15 0 25 9 10 10 24 17 30 17
6 0 9 7 5 17 -4 10 -2 14 4 10 13 -8 55 22 48 34 -9 14 -37 11 -29 -3 4 -7 3
-9 -1 -5 -18 15 -12 35 10 39 15 3 22 1 19 -7 -7 -18 29 -25 49 -10 15 11 16
14 2 25 -8 7 -15 17 -15 23 0 5 9 2 19 -7 19 -17 23 -16 98 10 137 48 245 44
391 -15 28 -11 52 -18 52 -15 0 3 7 -2 16 -11 9 -9 23 -14 30 -11 17 6 104
-31 104 -45 0 -5 -20 2 -45 17 -65 37 -63 26 2 -18 30 -21 51 -32 48 -25 -4 6
3 1 14 -13 11 -14 21 -35 21 -47 0 -30 41 -103 54 -96 6 4 7 2 3 -3 -5 -5 -14
-9 -20 -9 -7 0 -12 -9 -12 -20 0 -11 6 -19 13 -17 7 1 12 -8 12 -20 0 -16 -3
-19 -8 -10 -5 7 -16 10 -27 6 -19 -8 -18 1 2 71 5 18 3 17 -16 -4 -22 -26 -24
-30 -22 -76 1 -16 -3 -37 -9 -45 -8 -11 -9 -8 -5 15 3 17 -8 -9 -24 -56 -17
-47 -64 -151 -106 -232 -41 -81 -70 -147 -65 -147 6 0 10 -5 10 -10 0 -6 -8
-10 -17 -8 -13 2 -18 -3 -17 -20 0 -16 -4 -21 -14 -17 -10 4 -12 0 -8 -10 3
-9 2 -13 -4 -10 -12 7 -31 -30 -25 -48 3 -7 -3 -25 -14 -38 -11 -13 -20 -19
-21 -12 0 6 4 15 10 18 5 3 10 11 10 17 0 15 -67 -70 -85 -109 -9 -18 -20 -33
-24 -33 -5 0 -34 -34 -66 -76 -44 -59 -52 -74 -35 -69 21 7 21 6 3 -14 -10
-12 -19 -17 -21 -11 -2 5 -8 10 -14 10 -6 0 -7 -7 -4 -16 7 -19 -15 -43 -39
-41 -10 1 -20 -3 -22 -9 -2 -7 4 -11 14 -10 14 1 18 -6 18 -30 1 -22 -3 -30
-12 -27 -7 3 -13 0 -13 -6 0 -9 -5 -9 -20 -1 -11 6 -20 16 -19 23 0 9 2 9 6 0
6 -15 33 -17 33 -3 0 6 -4 10 -10 10 -5 0 -7 7 -4 15 8 19 -1 19 -25 -1 -16
-14 -18 -27 -16 -80 2 -35 7 -70 11 -77 6 -9 5 -9 -8 0 -8 7 -18 10 -21 6 -4
-3 -7 1 -7 10 0 9 5 17 11 17 6 0 3 7 -6 16 -15 15 -18 15 -40 -6 -14 -13 -27
-21 -30 -19 -3 3 11 21 30 39 26 26 35 30 35 17 0 -9 5 -17 10 -17 14 0 12 27
-2 33 -10 4 -9 8 2 16 8 6 11 11 7 11 -5 0 -31 -22 -59 -50 -28 -27 -45 -50
-39 -50 6 0 11 -5 11 -11 0 -6 -7 -8 -17 -5 -18 7 -66 -31 -57 -45 3 -5 -2 -6
-10 -3 -11 4 -13 0 -9 -15 3 -11 2 -29 -2 -38 -5 -10 -7 -21 -7 -25 1 -5 -5
-8 -13 -8 -20 0 -19 19 2 42 9 10 14 21 10 24 -8 8 -97 -54 -104 -72 -3 -8
-11 -14 -17 -14 -17 0 -66 -53 -66 -71 0 -21 -47 -82 -54 -71 -3 5 6 19 19 30
14 12 25 28 25 34 0 7 -16 -5 -35 -27 -21 -25 -33 -48 -30 -61 2 -13 -2 -21
-11 -21 -9 0 -13 6 -9 16 3 9 -5 3 -19 -14 -13 -16 -22 -33 -20 -36 2 -4 -3
-9 -11 -13 -8 -3 -15 -18 -15 -33 0 -15 -7 -37 -15 -47 -23 -31 -18 -44 15
-41 20 2 30 -2 30 -11 0 -17 -26 -19 -36 -3 -4 8 -9 7 -15 -2 -7 -12 -9 -12
-9 0 0 11 -3 11 -15 1 -20 -17 -19 -11 10 44 36 67 30 70 -10 6 -19 -30 -35
-65 -35 -78 0 -13 -4 -21 -9 -18 -8 5 -61 -108 -61 -131 0 -6 -8 -26 -17 -45
-9 -18 -20 -41 -24 -50 -17 -35 -50 -183 -46 -204 2 -13 0 -29 -4 -36 -7 -10
-9 -10 -10 2 -1 34 -29 -79 -30 -125 -1 -27 -4 -54 -8 -60 -3 -5 -5 -53 -4
-105 1 -84 0 -88 -6 -35 l-8 60 -3 -50 c-1 -27 -2 -65 -1 -84 2 -18 -1 -36 -6
-40 -5 -3 -7 -39 -3 -79 6 -76 -3 -129 -13 -82 -3 14 -3 -10 0 -52 3 -53 1
-78 -6 -78 -6 0 -11 -12 -11 -27 0 -22 2 -25 10 -13 8 11 9 9 5 -10 -9 -38 -8
-62 3 -97 8 -23 7 -38 -4 -59 -21 -40 -14 -77 16 -86 24 -7 24 -8 -2 -4 -20 2
-28 -1 -28 -11 0 -10 6 -13 16 -9 9 3 12 2 9 -4 -4 -7 9 -9 37 -5 31 4 38 3
23 -4 -14 -7 -2 -9 43 -6 35 1 61 0 58 -3 -3 -3 -1 -11 5 -19 9 -9 8 -13 0
-13 -6 0 -11 -12 -11 -27 0 -16 -4 -33 -8 -39 -11 -16 -41 -13 -35 3 3 8 11
12 18 9 9 -3 14 7 17 30 2 19 3 34 2 34 -1 0 -13 -18 -28 -39 -29 -42 -60
-162 -50 -196 4 -16 3 -17 -5 -5 -12 17 -13 14 -13 -50 l0 -45 -7 45 c-4 32
-1 61 12 99 31 92 11 67 -29 -36 -30 -76 -38 -111 -38 -158 1 -41 -1 -51 -6
-30 -5 26 -7 27 -13 10 -3 -11 -7 -47 -8 -80 -2 -49 0 -60 13 -59 12 1 15 -5
11 -25 -2 -14 -5 -56 -6 -93 -1 -38 -6 -68 -10 -68 -5 0 -6 3 -4 8 3 4 1 16
-4 27 -6 16 -8 12 -8 -16 -1 -20 6 -53 15 -74 8 -20 10 -34 5 -30 -6 3 -11 -1
-11 -9 0 -8 5 -18 10 -21 6 -3 10 -27 11 -53 0 -36 2 -42 9 -27 7 16 9 12 9
-20 0 -49 13 -101 44 -179 14 -34 27 -53 30 -45 3 8 6 5 6 -9 1 -27 33 -94 68
-139 26 -36 50 -46 33 -14 -12 24 -13 31 -1 31 12 0 20 -45 10 -62 -5 -9 1
-25 16 -44 13 -16 24 -24 25 -17 0 6 -4 15 -10 18 -14 8 -13 22 3 28 8 3 13
-7 14 -31 1 -19 8 -39 15 -43 7 -5 9 -9 4 -9 -5 0 1 -11 13 -24 23 -24 27 -25
192 -26 l169 0 1 22 c1 21 1 22 7 3 5 -12 17 -21 35 -23 34 -3 35 5 2 18 -14
5 -25 14 -25 20 0 6 5 8 10 5 15 -9 12 21 -7 84 -16 52 -36 85 -44 76 -2 -2
-4 22 -5 53 0 31 -6 71 -14 87 -7 17 -12 37 -11 45 1 8 -6 4 -14 -10 -10 -15
-14 -17 -11 -7 16 52 16 64 2 76 -9 7 -13 17 -10 23 8 13 -6 88 -17 88 -8 0
-49 -58 -49 -70 0 -3 4 -12 9 -19 8 -12 13 -11 30 10 11 13 20 19 21 12 0 -6
-5 -15 -10 -18 -6 -4 -8 -10 -5 -15 3 -4 -3 -16 -13 -27 -9 -10 -14 -14 -10
-9 8 11 -29 52 -39 42 -4 -4 -7 -44 -7 -89 1 -75 1 -77 -6 -27 -6 48 -7 50
-10 20 -2 -19 -4 -43 -4 -52 1 -12 -7 -17 -22 -16 -12 1 -21 6 -18 10 2 4 -1
10 -8 15 -7 4 -26 34 -43 65 -16 32 -33 58 -37 58 -4 0 -5 7 -1 15 3 9 2 15
-3 14 -21 -3 -32 2 -38 19 -3 9 -9 24 -13 32 -5 13 -4 13 10 1 10 -7 17 -21
18 -30 0 -9 3 -11 5 -5 2 6 -13 62 -33 125 -25 75 -36 124 -33 144 3 17 2 62
-3 100 -5 39 -6 88 -2 110 4 22 6 58 6 80 0 22 4 42 8 45 5 3 22 32 39 65 16
33 52 83 80 110 49 49 176 125 210 125 15 0 15 2 2 11 -12 8 -11 9 6 4 12 -3
33 -1 47 4 14 5 69 14 124 20 130 13 312 22 253 12 l-45 -8 48 -1 c26 -1 47
-5 47 -10 0 -13 122 -32 141 -21 11 6 20 5 24 -1 3 -5 -2 -10 -12 -11 -14 0
-14 -2 -3 -6 29 -10 86 -35 120 -53 25 -13 40 -16 53 -9 10 6 29 7 49 1 18 -5
42 -5 53 -1 36 14 51 8 16 -7 -18 -8 -40 -13 -47 -10 -7 3 -16 1 -19 -5 -4 -5
-11 -7 -16 -3 -5 3 -7 10 -4 15 7 11 -5 12 -22 1 -9 -6 -3 -14 20 -27 17 -11
34 -20 37 -20 3 0 14 -9 26 -20 35 -34 84 -75 89 -75 2 0 2 7 -1 15 -4 8 -1
15 6 15 8 0 10 -8 7 -22 -4 -13 1 -30 12 -45 16 -20 20 -21 25 -7 9 22 19 10
21 -24 2 -33 49 -125 58 -115 8 7 10 -9 7 -45 -1 -13 3 -28 8 -35 6 -7 14 -57
18 -112 6 -94 19 -139 33 -116 4 5 6 -8 6 -30 0 -47 -11 -51 -21 -7 l-7 33 -9
-25 c-5 -14 -7 -45 -4 -70 4 -31 3 -39 -3 -25 l-10 20 -2 -20 c-1 -11 -3 -31
-4 -45 -5 -44 -5 -45 -13 -32 -9 13 -48 -92 -43 -117 1 -7 -2 -10 -7 -7 -11 6
-31 -43 -33 -78 -1 -19 -2 -19 -6 -2 -4 15 -10 10 -34 -25 -16 -24 -29 -50
-29 -57 0 -8 -5 -10 -12 -6 -8 5 -9 2 -5 -10 4 -9 3 -14 -2 -11 -14 8 -25 -14
-25 -50 -1 -23 -6 -31 -23 -33 -28 -4 -31 -22 -4 -22 39 0 51 11 51 49 0 23 3
31 9 23 10 -16 3 -58 -13 -70 -6 -5 -29 -12 -51 -16 -29 -5 -36 -4 -25 3 11 8
11 11 2 11 -19 0 -4 20 24 30 13 5 24 16 24 25 0 21 -4 19 -47 -20 -21 -19
-34 -35 -28 -35 5 0 -2 -8 -15 -17 -14 -10 -28 -17 -31 -16 -4 1 -15 -7 -24
-17 -18 -20 -17 -20 23 -20 23 0 42 5 45 13 4 9 7 9 18 0 9 -9 54 -13 151 -13
104 0 138 3 138 13 0 8 3 7 10 -3 7 -12 12 -12 22 -2 8 8 9 15 3 20 -17 12
-15 30 3 28 13 -1 17 7 17 36 0 20 3 39 6 42 3 3 5 -12 5 -33 -1 -22 -4 -43
-8 -47 -5 -4 -8 -12 -8 -18 1 -26 62 90 70 132 11 61 20 83 31 77 4 -3 16 20
25 52 18 62 18 61 11 110 -2 18 0 30 4 27 5 -3 9 21 10 53 0 39 3 52 8 38 8
-19 9 85 2 110 -2 6 -2 33 -1 60 2 41 3 45 10 25 7 -23 8 -23 9 -3 1 12 -3 24
-8 27 -5 3 -7 25 -4 49 3 28 1 38 -5 28 -7 -10 -11 -5 -14 18 -2 17 0 35 5 40
7 7 7 15 0 23 -6 7 -13 33 -16 58 -3 25 -13 61 -22 80 l-16 35 6 -32 c4 -19 2
-34 -5 -38 -9 -5 -10 -1 -5 15 5 15 4 20 -4 16 -13 -9 -13 -9 -2 31 8 29 4 44
-39 130 -27 53 -53 99 -58 102 -5 3 -19 25 -32 49 -13 23 -30 42 -37 42 -7 0
-13 6 -13 13 0 7 -9 23 -20 35 -11 12 -20 26 -20 32 0 5 -7 10 -15 10 -8 0
-15 4 -15 10 0 6 10 6 27 -1 15 -5 39 -9 53 -8 14 0 30 0 35 -1 6 -1 47 -3 92
-4 l82 -1 1 240 c3 402 7 529 15 555 5 14 8 36 7 50 -1 14 1 19 5 11 3 -8 16
21 29 65 26 89 27 96 13 72 -12 -21 -38 -13 -34 10 6 28 7 28 15 2 l8 -25 1
28 c1 26 21 40 21 15 0 -7 5 -5 11 5 6 9 8 31 5 47 -4 29 8 42 17 18 2 -7 11
3 21 22 13 27 14 31 2 16 -9 -11 -18 -17 -22 -14 -9 10 20 49 33 44 12 -5 49
42 45 56 -1 5 1 7 6 6 13 -5 92 81 81 88 -6 3 -9 19 -5 35 3 17 1 29 -7 32 -7
2 11 4 38 3 28 -1 56 2 63 7 17 13 15 -1 -3 -19 -9 -9 -15 -11 -15 -4 0 6 -11
-2 -25 -17 -13 -15 -25 -23 -25 -16 0 7 7 16 16 21 10 6 13 12 6 16 -11 7 -42
-19 -42 -35 0 -24 33 -18 76 15 26 20 43 36 39 36 -4 0 -2 7 5 15 7 9 19 14
25 11 7 -2 18 0 26 5 12 8 12 11 -1 20 -12 8 -10 9 8 4 13 -4 22 -2 22 4 0 6
9 11 21 11 13 0 18 4 13 12 -4 6 -3 8 3 5 12 -7 109 41 204 101 61 38 65 44
61 72 -3 23 0 30 12 30 14 0 15 -4 6 -21 -7 -11 -8 -24 -4 -27 4 -4 9 -1 11 6
3 6 12 12 20 12 10 0 13 6 9 16 -3 8 -2 12 4 9 12 -7 55 20 97 61 25 24 29 34
20 44 -10 10 -8 11 9 6 16 -5 34 8 88 64 37 39 74 85 81 103 8 18 14 28 15 22
0 -5 9 3 19 19 15 23 17 34 9 49 -8 16 -12 17 -19 6 -5 -8 -9 -9 -9 -4 0 13
20 35 32 35 4 0 8 -7 8 -16 0 -8 5 -12 11 -8 6 3 8 17 5 30 -4 14 -2 24 4 24
6 0 8 -4 5 -10 -9 -15 11 -12 22 3 22 27 65 147 59 162 -3 9 -2 13 4 10 6 -4
10 6 10 22 0 19 3 24 9 15 13 -21 20 20 11 60 -8 31 -8 31 -9 6 -1 -16 -6 -28
-12 -28 -5 0 -8 -4 -5 -8 6 -10 -30 -9 -40 1 -4 4 2 7 14 7 21 0 25 8 25 52 0
10 4 15 8 12 5 -3 9 1 10 8 1 7 7 -5 14 -27 l12 -40 12 40 c6 22 11 48 11 57
0 9 5 20 11 24 7 4 8 21 5 43 -4 21 -3 31 2 23 12 -18 34 84 27 128 -4 25 -3
29 3 15 7 -16 12 -3 23 55 7 41 12 87 11 103 -2 15 2 27 8 27 8 0 9 10 5 31
-11 48 -12 89 -3 89 4 0 8 -5 8 -12 0 -6 2 -9 4 -7 2 2 1 23 -4 47 -6 37 1 65
13 45 2 -5 2 -1 -1 7 -3 8 -6 62 -6 120 -1 58 -5 111 -9 117 -6 9 -3 11 7 7 8
-3 17 -20 19 -37 2 -18 5 22 5 89 1 75 -2 124 -9 131 -6 6 -10 38 -10 72 0 33
-6 73 -14 88 -11 21 -12 30 -2 42 12 15 12 15 -38 -5 -19 -8 -31 38 -16 63 9
15 10 13 11 -14 0 -24 5 -33 16 -33 14 0 15 7 8 48 -4 26 -7 61 -7 77 2 50
-19 138 -29 122 -5 -9 -2 -26 7 -43 20 -38 20 -39 -14 -39 -26 0 -28 2 -16 15
8 9 12 31 11 52 -2 21 1 39 6 40 5 2 6 16 2 32 -6 24 -10 27 -35 22 -27 -5
-28 -4 -17 14 7 11 17 20 21 20 10 0 2 27 -25 92 -11 26 -25 45 -30 42 -6 -4
-7 2 -3 16 5 15 4 20 -4 16 -6 -4 -13 5 -16 21 -4 15 -19 55 -35 88 -20 43
-28 53 -27 33 1 -14 5 -24 10 -21 4 2 7 1 6 -4 -1 -4 3 -21 9 -36 12 -29 11
-61 -2 -74 -5 -5 -5 6 -2 24 4 18 3 34 -3 38 -6 3 -11 -1 -11 -9 0 -9 -4 -16
-10 -16 -6 0 -5 10 2 25 7 16 8 29 1 37 -5 7 -10 29 -12 47 -5 62 -199 331
-238 331 -7 0 -13 5 -13 10 0 23 -27 60 -43 60 -5 0 -3 -7 4 -16 8 -9 12 -27
11 -40 -2 -14 3 -26 12 -30 8 -3 17 -13 20 -21 5 -13 4 -14 -8 -4 -8 7 -24 10
-36 6 -23 -7 -25 -2 -7 25 10 17 9 22 -3 30 -8 5 -21 7 -29 5 -12 -5 -12 -3 0
11 8 10 15 12 17 5 2 -6 10 -11 19 -11 13 0 12 2 -1 15 -8 9 -13 22 -9 30 4
11 1 13 -11 9 -12 -5 -19 0 -23 15 -3 11 -24 34 -46 51 -41 30 -60 33 -37 5
17 -21 6 -30 -13 -11 -8 9 -13 24 -11 33 3 13 -10 28 -43 51 -28 19 -49 28
-52 21 -2 -6 -9 0 -15 13 -7 12 -20 22 -29 22 -9 -1 -14 2 -12 7 6 8 -65 49
-86 49 -6 0 -9 -6 -6 -14 3 -8 0 -20 -8 -26 -11 -9 -14 -6 -17 12 -2 14 -9 22
-18 20 -12 -3 -11 0 2 14 16 17 13 20 -58 56 -70 36 -108 50 -74 28 8 -5 11
-10 5 -10 -14 0 -43 20 -30 20 6 1 -4 7 -21 14 -17 8 -44 12 -60 10 -16 -2
-20 -1 -9 3 52 15 -219 85 -480 122 -98 15 -302 22 -285 10 11 -7 9 -8 -10 -5
-74 14 -133 16 -146 5 -10 -8 -14 -8 -14 0 0 11 -13 15 -22 6z m522 -35 c0 -5
-7 -10 -16 -10 -8 0 -12 5 -9 10 3 6 10 10 16 10 5 0 9 -4 9 -10z m73 -17
c-13 -2 -33 -2 -45 0 -13 2 -3 4 22 4 25 0 35 -2 23 -4z m-755 -17 c-7 -8 -15
-12 -17 -11 -5 6 10 25 20 25 5 0 4 -6 -3 -14z m809 7 c-12 -3 -15 -8 -8 -16
7 -9 -6 -11 -52 -8 l-62 4 50 12 c28 7 59 13 70 13 17 0 17 -1 2 -5z m-879
-10 c-10 -2 -26 -2 -35 0 -10 3 -2 5 17 5 19 0 27 -2 18 -5z m971 -8 c4 2 21
1 37 -4 21 -6 9 -8 -46 -8 -41 0 -67 2 -57 4 9 2 15 9 12 14 -4 5 5 5 20 -1
15 -6 30 -8 34 -5z m-952 -11 c-3 -3 -12 -4 -19 -1 -8 3 -5 6 6 6 11 1 17 -2
13 -5z m1060 -10 c-3 -3 -12 -4 -19 -1 -8 3 -5 6 6 6 11 1 17 -2 13 -5z
m-1481 -45 c3 -6 17 -8 29 -5 13 3 27 2 30 -4 6 -10 -6 -12 -119 -15 -44 -1
-53 1 -36 7 13 5 36 6 52 3 23 -5 27 -4 22 9 -7 18 11 22 22 5z m1661 -23 c1
-1 -20 -2 -47 -2 -48 0 -49 0 -23 12 24 10 49 6 70 -10z m-1781 -18 c5 -7 3
-8 -5 -4 -8 5 -14 0 -18 -14 -4 -16 -8 -18 -14 -8 -7 11 -12 11 -29 0 -11 -7
-24 -11 -28 -8 -4 2 -13 -2 -19 -9 -10 -11 -9 -15 5 -18 14 -4 13 -5 -3 -6
-42 -2 -45 14 -7 33 20 10 45 22 55 27 10 6 22 7 27 4 5 -3 11 -1 15 5 8 13
12 13 21 -2z m792 -7 c2 -7 31 -10 75 -10 40 1 61 3 47 6 -74 11 -92 15 -88
18 5 6 220 -24 227 -31 3 -4 -16 -5 -44 -2 -27 3 -93 2 -145 -2 l-95 -7 85 -2
c47 -1 137 -6 200 -11 118 -10 161 -6 71 6 -28 4 -49 9 -46 12 10 10 144 -21
149 -35 3 -7 18 -13 32 -13 29 0 37 -2 184 -48 70 -22 111 -30 155 -28 60 3
60 3 21 -9 l-39 -11 48 -18 c59 -23 199 -96 270 -141 30 -19 61 -35 69 -35 8
0 20 -9 26 -20 6 -11 16 -20 23 -20 7 0 6 4 -3 10 -30 20 6 8 45 -14 22 -12
42 -31 44 -42 3 -14 -4 -11 -30 14 -34 33 -49 40 -49 22 0 -5 4 -10 8 -10 5 0
17 -8 28 -17 87 -78 106 -94 111 -89 3 3 0 12 -7 21 -18 21 -6 30 14 10 12
-12 13 -21 6 -34 -7 -14 -4 -23 10 -36 11 -10 20 -14 21 -9 0 5 4 -1 9 -13 11
-26 30 -31 30 -8 0 8 -4 15 -9 15 -5 0 -11 9 -14 19 -4 15 2 20 24 23 20 3 29
0 29 -9 0 -7 5 -13 11 -13 5 0 7 5 4 10 -3 6 3 10 14 10 12 0 21 -4 21 -10 0
-5 5 -10 11 -10 5 0 7 5 3 12 -4 7 -3 8 4 4 6 -4 8 -14 5 -22 -4 -11 -14 -14
-34 -10 -16 3 -28 2 -28 -2 3 -20 -2 -31 -15 -26 -7 3 -16 -3 -20 -12 -8 -21
20 -55 40 -47 10 3 14 -2 14 -18 1 -29 50 -94 50 -66 0 9 -5 17 -11 17 -8 0
-7 5 1 15 19 23 33 3 20 -30 -9 -24 -7 -34 13 -64 13 -20 34 -52 46 -71 21
-32 22 -27 5 15 -4 9 -1 15 7 15 7 0 9 -3 6 -6 -3 -4 -2 -14 2 -23 5 -9 11
-30 14 -46 4 -29 66 -159 67 -142 0 5 5 5 10 2 6 -4 7 -13 1 -23 -6 -12 -4
-26 5 -42 l15 -25 -6 28 c-3 17 -2 26 3 23 13 -8 21 -55 10 -58 -5 -2 -2 -21
6 -43 8 -22 15 -35 15 -28 1 6 -3 23 -9 38 -7 19 -7 24 2 19 8 -5 9 5 4 37 -4
30 -3 39 3 29 6 -8 10 -37 9 -65 -1 -27 2 -61 6 -74 5 -14 4 -21 -1 -18 -21
13 1 -44 23 -62 17 -14 24 -29 24 -55 0 -20 -4 -36 -8 -36 -5 0 -7 -13 -4 -30
2 -16 9 -30 14 -30 5 0 7 -8 3 -18 -3 -11 1 -66 9 -123 8 -57 15 -158 15 -224
1 -66 4 -142 6 -170 4 -39 3 -44 -5 -25 -8 21 -9 18 -5 -15 14 -125 15 -141 6
-107 -11 44 -18 49 -19 15 0 -16 -1 -69 -2 -118 0 -50 -5 -97 -10 -105 -8 -12
-10 -11 -11 5 -2 27 -20 -63 -20 -98 0 -15 -4 -25 -9 -22 -6 4 -10 0 -10 -7 0
-8 -14 -54 -31 -103 -16 -50 -30 -103 -29 -118 0 -16 -3 -26 -8 -23 -8 5 -65
-103 -68 -128 -3 -33 -5 -37 -13 -32 -13 8 -62 -71 -55 -89 3 -8 1 -15 -5 -15
-6 0 -11 5 -11 11 0 6 -9 1 -19 -12 -11 -13 -17 -26 -15 -28 2 -3 11 4 19 15
13 17 14 17 15 2 0 -10 -5 -18 -11 -18 -6 0 -8 -9 -4 -22 7 -22 7 -22 -8 -3
-13 17 -17 17 -31 6 -9 -8 -14 -21 -11 -29 3 -9 0 -12 -9 -9 -8 3 -20 -2 -28
-11 -11 -13 -11 -14 1 -8 9 6 12 5 9 -5 -3 -8 -11 -14 -19 -14 -8 0 -45 -27
-81 -59 -47 -42 -65 -65 -62 -79 4 -22 -34 -59 -53 -52 -7 2 -13 1 -13 -3 0
-5 6 -14 13 -21 10 -10 9 -11 -5 -6 -28 11 -30 34 -3 41 20 5 66 54 50 54 -9
0 -130 -91 -133 -101 -2 -5 -8 -9 -13 -9 -5 0 -32 -15 -59 -33 -40 -27 -47
-36 -37 -46 10 -11 8 -12 -8 -8 -12 3 -34 -4 -55 -17 -26 -17 -34 -30 -35 -52
0 -20 -6 -30 -19 -32 -18 -4 -19 -3 -3 13 22 21 12 38 -12 23 -10 -6 -18 -22
-17 -35 1 -18 7 -23 27 -23 29 0 44 13 52 45 4 16 5 14 6 -7 2 -48 -6 -55 -52
-48 -23 4 -50 11 -60 15 -20 8 -50 -12 -40 -28 3 -5 1 -7 -4 -4 -12 8 -89 -51
-85 -65 1 -5 -4 -19 -13 -31 -8 -12 -15 -17 -15 -11 0 5 5 15 12 22 6 6 9 14
6 17 -3 4 -25 -12 -48 -34 -35 -34 -40 -42 -31 -59 6 -12 8 -28 5 -37 -7 -16
15 -18 27 -2 3 5 9 2 12 -5 3 -10 -4 -15 -23 -16 -29 -2 -54 18 -32 26 17 5
15 19 -4 26 -12 4 -15 2 -11 -9 4 -8 2 -17 -4 -21 -6 -4 -5 -12 3 -22 12 -15
11 -16 -4 -4 -10 8 -14 20 -11 30 6 15 4 15 -10 4 -26 -22 -87 -118 -87 -139
0 -10 -5 -25 -11 -33 -8 -12 -9 -9 -5 10 3 14 -10 -6 -29 -45 -20 -39 -35 -85
-35 -105 0 -22 -3 -30 -8 -22 -14 21 -36 -93 -23 -117 6 -11 11 -28 10 -38 0
-13 -4 -10 -13 10 -11 26 -13 23 -25 -50 -6 -43 -15 -93 -18 -110 -3 -21 -1
-33 6 -33 6 0 11 21 12 53 1 28 5 66 9 82 5 19 6 4 3 -40 -6 -93 -11 -117 -30
-130 -10 -7 -14 -19 -10 -29 5 -13 11 -15 26 -6 25 13 31 13 31 0 0 -5 -9 -10
-19 -10 -12 0 -20 -7 -20 -17 0 -10 -4 -67 -9 -128 -5 -63 -5 -115 0 -122 5
-6 8 -35 6 -65 l-3 -53 -60 -1 c-33 -1 -100 3 -150 9 -49 5 -112 11 -140 13
-62 4 -94 9 -119 20 -13 5 -21 3 -24 -4 -2 -7 -11 -12 -20 -12 -13 0 -14 2 -4
9 10 6 4 10 -18 14 -17 4 -29 10 -26 15 10 16 47 259 52 337 5 86 5 89 28 215
21 120 24 190 7 190 -4 0 -6 -22 -3 -50 3 -31 1 -50 -6 -50 -6 0 -8 15 -5 39
10 76 -15 48 -46 -52 -17 -56 -31 -110 -31 -119 0 -10 -6 -18 -12 -18 -9 0 -8
-3 2 -10 13 -8 13 -11 -2 -22 -23 -17 -13 -58 13 -58 14 0 19 -7 18 -27 -1
-16 -1 -53 0 -83 2 -41 5 -50 11 -35 l9 20 0 -20 c0 -11 -4 -29 -8 -40 -7 -16
-9 -14 -14 14 -4 19 -8 48 -8 65 -1 23 -3 25 -6 9 -2 -13 -9 -23 -14 -23 -5 0
-9 -9 -9 -20 0 -11 -5 -20 -11 -20 -6 0 -8 7 -5 16 3 9 6 25 6 35 0 11 4 18 9
14 6 -3 6 6 1 25 -5 19 -5 28 1 25 14 -9 10 17 -7 45 -8 14 -13 17 -10 8 3 -9
1 -18 -3 -20 -5 -2 -12 -19 -15 -38 -6 -27 -5 -32 4 -20 9 12 10 8 6 -19 -3
-18 -7 -41 -7 -50 -1 -9 -5 -2 -9 14 l-8 30 -1 -37 c-2 -63 -22 -142 -32 -127
-11 17 -11 -3 0 -78 4 -29 4 -53 -1 -53 -4 0 -8 19 -9 43 -1 43 -3 42 -14 -6
-5 -27 -8 -28 -48 -22 -33 5 -39 4 -27 -5 11 -9 -4 -10 -65 -4 -44 4 -95 8
-113 8 -21 1 -37 8 -43 19 -6 9 -6 17 -2 17 4 0 1 5 -7 10 -12 8 -10 10 9 10
22 0 23 3 18 42 -3 23 -2 37 2 30 6 -11 13 35 43 278 5 47 14 94 18 105 5 11
10 39 12 63 3 34 0 42 -14 42 -12 0 -19 11 -24 37 -6 31 -8 34 -14 18 -4 -11
-3 -26 3 -33 5 -7 7 -16 3 -19 -4 -4 -12 -1 -17 7 -8 12 -9 10 -4 -6 3 -13 0
-26 -9 -33 -20 -17 -28 -55 -16 -83 9 -21 10 -20 7 9 -2 18 0 30 5 27 4 -3 8
-30 8 -60 0 -39 -4 -56 -15 -60 -8 -4 -15 -14 -16 -23 0 -10 -2 -12 -6 -3 -3
7 0 26 5 42 6 16 8 39 5 51 -6 22 -7 22 -14 3 -4 -10 -5 -30 -2 -43 4 -16 2
-22 -5 -17 -7 4 -13 -7 -17 -31 -3 -21 -10 -46 -16 -56 -10 -19 -4 -37 12 -37
5 0 9 8 9 18 0 10 7 27 15 38 12 17 14 17 15 2 0 -9 -4 -27 -9 -41 -15 -40
-17 -102 -2 -99 7 1 10 -2 6 -7 -13 -23 -35 2 -35 40 0 39 -1 39 -19 22 -20
-19 -73 -201 -61 -208 4 -3 11 16 15 42 4 31 9 42 15 33 5 -8 4 -22 -2 -33 -5
-10 -8 -27 -5 -37 4 -14 -1 -17 -20 -15 -22 2 -23 1 -7 -16 16 -17 15 -19 -10
-29 -15 -5 -61 -10 -102 -10 -45 0 -73 -4 -69 -10 3 -5 13 -6 23 -3 14 5 13 3
-2 -9 -26 -20 -50 -16 -53 8 -3 18 -2 18 6 -1 9 -19 10 -19 10 3 1 12 -2 22
-7 22 -7 0 -7 63 2 208 3 40 0 72 -5 72 -5 0 -9 14 -9 31 0 17 4 28 10 24 6
-4 10 8 10 29 0 20 -4 36 -10 36 -5 0 -9 19 -9 43 l2 42 7 -40 7 -40 3 45 c3
43 6 112 9 175 1 22 4 26 10 16 7 -11 11 -4 16 25 4 21 16 73 26 116 10 42 19
86 19 97 0 12 4 21 10 21 5 0 14 19 21 43 14 53 42 124 84 207 17 36 30 74 28
85 -3 15 -2 16 5 6 8 -11 11 -11 18 0 4 7 3 14 -4 17 -7 2 -12 8 -12 13 0 6 5
7 10 4 9 -6 14 8 11 28 -1 5 3 6 8 2 6 -3 8 -13 5 -23 -5 -15 -4 -15 5 -2 23
30 34 53 22 46 -6 -4 -11 0 -11 8 0 9 8 16 18 17 19 0 108 106 98 117 -6 6
-35 -28 -48 -58 -5 -11 -7 -10 -7 6 -1 26 34 59 63 59 12 0 20 5 18 14 -3 16
27 65 35 57 4 -3 -2 -16 -13 -28 -12 -14 -5 -11 16 7 l36 30 -28 3 c-31 4 -32
5 -17 34 11 20 11 20 31 -2 l20 -21 27 23 c14 13 28 24 30 26 2 1 1 5 -2 9 -4
3 -18 -4 -32 -17 -14 -13 -25 -18 -25 -12 0 16 47 45 59 37 6 -3 36 15 68 41
63 51 74 61 57 51 -12 -7 -29 21 -19 31 3 3 5 0 5 -6 0 -7 11 -12 25 -12 14 0
25 3 25 8 0 4 12 15 27 24 19 11 27 25 28 44 0 21 6 29 20 32 18 2 18 2 3 -8
-19 -12 -25 -40 -8 -40 6 0 10 5 10 10 0 6 7 10 16 10 11 0 14 6 10 23 -3 12
-3 16 0 10 3 -7 9 -13 13 -13 14 0 67 56 64 67 -2 6 1 14 6 18 7 3 8 0 5 -9
-3 -9 -3 -16 1 -16 11 0 85 63 85 72 0 5 -5 6 -10 3 -6 -3 -10 -1 -10 5 0 7 8
9 20 5 17 -5 44 18 144 118 67 69 129 139 136 156 7 17 15 29 19 27 3 -2 19
13 34 35 l28 39 -30 -4 c-17 -2 -28 1 -25 6 3 5 11 7 17 5 19 -7 61 22 81 56
l18 32 -21 -19 c-28 -25 -26 -12 4 41 25 42 46 62 25 24 -5 -11 -10 -26 -10
-33 1 -7 8 1 17 17 10 17 16 38 14 49 -1 10 2 15 8 12 14 -9 62 98 69 152 3
29 8 39 13 30 7 -10 9 -9 9 5 0 9 0 18 -1 20 0 1 4 15 10 30 12 31 3 147 -10
126 -4 -7 -5 27 -3 75 3 51 0 94 -6 106 -9 16 -8 20 6 20 14 0 16 -10 12 -65
-2 -36 0 -65 5 -65 5 0 7 -13 4 -30 -4 -17 -2 -30 3 -30 6 0 10 9 10 19 0 11
4 22 8 25 4 2 7 47 6 99 -2 106 -32 253 -45 221 -6 -14 -8 -10 -7 16 1 37 -62
165 -70 141 -2 -6 2 -18 8 -26 9 -10 9 -15 1 -15 -6 0 -13 11 -17 25 -3 14 -9
23 -13 21 -4 -3 -7 4 -7 15 0 10 4 19 8 19 18 0 -71 79 -129 114 -132 81 -284
113 -478 102 -95 -5 -202 -23 -153 -25 9 -1 18 -5 20 -10 2 -5 28 -6 58 -2
l55 6 -55 6 -55 6 50 1 c28 0 59 -3 70 -8 l20 -9 -20 -1 c-18 -1 -18 -2 -2 -9
10 -3 -27 -7 -83 -8 -56 0 -104 -3 -107 -6 -3 -3 -12 -3 -21 0 -13 6 -13 8 4
15 12 5 6 6 -16 2 -19 -4 -46 -12 -60 -19 -14 -7 -55 -27 -92 -44 -38 -18 -68
-34 -68 -37 0 -4 8 -3 17 0 10 4 14 4 11 0 -4 -4 -3 -15 3 -25 9 -17 8 -18
-20 -1 -29 16 -31 16 -76 -16 -25 -17 -50 -32 -55 -32 -5 0 -7 -7 -3 -15 3 -9
2 -15 -3 -14 -5 1 -17 -1 -27 -6 -14 -6 -15 -10 -5 -23 11 -13 10 -14 -11 -7
-17 5 -21 4 -16 -5 4 -7 2 -10 -6 -8 -15 3 -143 -112 -134 -120 2 -3 11 1 20
8 13 11 14 10 9 -4 -3 -9 -10 -16 -16 -16 -5 0 -6 -9 -3 -20 6 -18 4 -19 -21
-10 -15 6 -28 9 -29 8 -29 -32 -75 -102 -75 -114 0 -8 -4 -13 -9 -9 -11 6 -44
-36 -35 -44 3 -3 12 3 20 13 8 11 14 15 14 10 0 -6 -6 -16 -12 -23 -10 -11
-10 -14 0 -18 12 -5 18 -33 6 -33 -3 0 -13 9 -23 21 -17 21 -17 21 -43 -17
-59 -88 -79 -127 -75 -144 3 -13 0 -17 -10 -13 -12 5 -14 1 -8 -18 5 -18 4
-21 -4 -9 -7 10 -11 11 -11 3 0 -25 -26 -12 -77 38 -29 28 -53 47 -53 43 0 -4
-13 12 -28 37 -37 56 -107 113 -130 104 -13 -5 -14 -3 -5 6 9 9 9 15 -2 25
-18 19 -31 18 -15 -1 10 -12 10 -15 -3 -15 -12 0 -37 45 -37 66 0 13 19 1 23
-13 2 -10 8 1 12 24 4 24 11 41 15 38 7 -5 66 114 63 126 -2 4 7 27 18 51 16
35 19 37 14 13 -6 -30 -6 -30 10 -8 10 14 13 31 9 48 -7 28 -24 34 -24 8 0 -9
-3 -14 -6 -10 -8 8 5 47 16 47 5 0 13 -12 18 -27 9 -26 10 -27 18 -8 4 11 15
26 23 32 13 10 14 14 2 22 -9 6 -10 11 -2 15 18 12 13 36 -6 30 -14 -5 -15 -4
-4 4 8 6 19 9 25 8 6 -2 8 -1 4 1 -15 8 -8 40 12 58 11 10 17 21 15 26 -11 18
13 17 28 -2 22 -25 21 -29 -2 -29 -23 0 -45 -25 -38 -44 3 -7 -1 -24 -10 -35
-8 -12 -13 -25 -10 -27 3 -3 15 9 27 25 12 17 18 31 13 31 -4 1 1 8 13 18 30
26 127 162 120 169 -3 4 -13 -2 -22 -13 -8 -10 -12 -13 -9 -6 10 18 -26 0 -44
-22 -8 -9 -17 -14 -21 -11 -4 2 -26 -14 -48 -36 -23 -22 -42 -37 -42 -34 0 10
-57 -33 -110 -84 -27 -25 -55 -47 -62 -49 -22 -6 -34 -22 -16 -22 9 0 19 6 21
13 4 7 6 6 6 -4 1 -20 -40 -33 -51 -16 -5 8 -9 6 -14 -6 -3 -9 -9 -15 -13 -13
-3 2 -33 -13 -66 -35 -68 -44 -81 -47 -88 -19 -3 11 -10 20 -17 20 -6 0 -8 -5
-4 -12 4 -7 3 -8 -4 -4 -6 4 -8 14 -5 22 5 13 1 15 -15 10 -12 -4 -30 -3 -39
3 -10 6 -12 11 -5 11 6 0 12 5 12 10 0 6 12 22 27 36 14 13 23 27 19 31 -3 4
-13 -3 -22 -15 -8 -12 -20 -22 -26 -22 -14 0 40 58 67 72 16 9 18 8 8 -3 -7
-7 -13 -17 -13 -22 0 -5 10 3 23 19 12 16 45 53 72 83 28 29 49 60 49 67 -1 7
4 10 11 8 6 -3 23 10 37 28 14 18 45 53 68 78 24 25 58 62 77 82 22 22 32 41
27 49 -4 8 -3 10 5 5 6 -4 18 0 27 8 9 9 11 16 4 16 -6 0 -8 5 -5 10 4 6 10 8
14 6 8 -5 62 45 64 61 1 4 6 7 12 5 5 -2 7 -1 3 3 -4 4 5 18 20 32 24 22 21
21 -33 -8 -33 -18 -67 -37 -75 -44 -8 -6 -37 -22 -64 -36 -27 -13 -51 -32 -54
-42 -4 -15 -7 -16 -13 -5 -7 10 -9 8 -9 -6 0 -13 5 -17 19 -13 23 6 37 -19 15
-27 -8 -3 -14 -1 -14 4 0 6 -14 8 -32 5 -31 -6 -32 -5 -13 9 11 9 15 16 9 16
-6 0 -23 -9 -37 -20 -14 -11 -29 -20 -34 -20 -4 0 -21 -11 -37 -25 -16 -14
-34 -25 -40 -25 -7 0 -31 -17 -54 -37 -23 -21 -58 -49 -77 -63 -19 -14 -35
-30 -35 -37 0 -7 -7 -16 -16 -21 -11 -6 -13 -11 -5 -16 15 -10 14 -23 -3 -29
-11 -4 -13 -1 -9 10 5 12 1 14 -16 8 -20 -6 -20 -4 9 44 18 31 27 58 23 68 -5
12 -2 15 10 10 9 -3 17 -2 17 3 0 6 -6 10 -12 10 -10 0 -10 2 0 9 8 5 11 17 7
33 -4 14 -3 28 2 31 12 8 39 -10 30 -20 -5 -4 -12 -1 -17 7 -8 13 -10 12 -10
-2 0 -9 4 -19 9 -23 12 -7 41 34 41 57 0 10 7 18 16 18 11 0 13 6 9 19 -3 11
-1 22 4 26 7 4 9 -1 5 -12 -4 -13 1 -11 16 7 44 52 50 60 40 60 -6 0 -10 5
-10 10 0 6 8 10 18 8 17 -3 20 12 8 42 -5 11 0 16 16 17 13 0 17 -1 11 -4 -7
-3 -13 -12 -13 -21 0 -13 4 -12 23 6 22 23 22 23 2 38 -11 8 -24 13 -31 10 -6
-2 -11 2 -11 10 0 8 9 13 23 12 12 -1 21 -5 18 -9 -2 -4 2 -12 10 -18 10 -8
40 15 135 109 68 66 127 120 132 120 5 0 17 8 27 18 10 10 45 35 77 55 33 20
55 37 50 37 -12 0 43 31 98 55 29 14 36 22 32 36 -5 14 -1 19 14 19 12 0 21 5
21 10 0 15 -33 12 -56 -5 -16 -13 -17 -16 -4 -25 13 -9 13 -11 0 -20 -8 -5
-19 -9 -25 -9 -5 0 -4 3 2 6 8 3 11 14 7 27 -7 30 18 49 56 44 16 -3 30 -1 30
4 0 5 5 6 12 2 8 -5 2 -15 -16 -31 -33 -28 -27 -29 22 -4 90 46 192 91 247
107 33 10 62 21 65 25 3 3 21 8 40 12 19 3 49 11 65 18 17 7 33 12 37 11 3 -1
39 6 80 15 40 8 81 15 92 15 10 -1 31 8 46 19 19 15 38 19 66 16 l39 -4 -42
-1 c-24 -1 -43 -6 -43 -10 0 -4 35 -5 78 0 42 4 85 5 94 2 10 -3 26 -1 35 5
10 6 14 11 8 11 -5 1 -1 5 10 10 14 6 -4 9 -55 9 -41 1 -80 5 -87 9 -6 4 30 6
80 6 57 -1 93 -6 95 -13z m332 8 c0 -5 12 -10 28 -10 15 -1 20 -3 12 -5 -8 -2
-58 2 -110 10 l-95 14 83 0 c45 0 82 -4 82 -9z m-555 -9 c18 -8 17 -9 -7 -9
-16 -1 -28 4 -28 9 0 12 8 12 35 0z m-90 -10 c-3 -5 -10 -10 -16 -10 -5 0 -9
5 -9 10 0 6 7 10 16 10 8 0 12 -4 9 -10z m1364 -11 c-22 -14 -33 -10 -19 6 7
8 17 12 22 9 6 -4 5 -10 -3 -15z m-1141 4 c-10 -2 -28 -2 -40 0 -13 2 -5 4 17
4 22 1 32 -1 23 -4z m542 -12 c15 -30 12 -33 -10 -11 -22 22 -25 30 -10 30 5
0 14 -9 20 -19z m656 5 c7 -8 19 -16 26 -19 8 -2 9 -8 4 -13 -5 -5 -11 -4 -13
3 -3 7 -17 10 -39 6 -23 -4 -34 -2 -34 7 0 8 9 10 27 5 23 -5 25 -4 14 9 -17
20 -5 21 15 2z m-1946 -26 c0 -5 -9 -6 -20 -3 -11 3 -17 9 -15 14 7 10 35 1
35 -11z m-123 -6 c-3 -3 -12 -4 -19 -1 -8 3 -5 6 6 6 11 1 17 -2 13 -5z m513
1 c0 -14 -42 -25 -58 -15 -15 10 -15 10 3 6 11 -3 27 -1 35 4 17 11 20 12 20
5z m-92 -24 c3 -9 0 -11 -9 -5 -7 4 -28 7 -47 6 -22 -2 -31 1 -27 8 10 15 77
8 83 -9z m1162 8 c6 9 51 8 65 -1 6 -4 17 -3 25 3 20 12 53 11 45 -1 -4 -6
-12 -10 -18 -9 -26 3 -38 -2 -31 -13 5 -7 3 -8 -7 -3 -7 5 -44 10 -82 11 -39
2 -74 7 -79 12 -6 6 7 7 34 2 23 -5 45 -5 48 -1z m-1260 -13 c0 -3 -4 -8 -10
-11 -5 -3 -10 -1 -10 4 0 6 5 11 10 11 6 0 10 -2 10 -4z m65 -16 c-3 -5 -12
-10 -18 -10 -7 0 -6 4 3 10 19 12 23 12 15 0z m1816 1 c-10 -7 -10 -10 -1 -16
7 -4 16 -2 20 5 5 9 9 9 14 1 4 -6 2 -11 -4 -11 -6 0 -9 -3 -7 -7 3 -5 -11 -8
-30 -9 -24 0 -30 2 -19 8 8 5 13 15 10 23 -4 10 0 15 12 15 15 0 16 -2 5 -9z
m-551 -11 c18 -12 2 -12 -25 0 -13 6 -15 9 -5 9 8 0 22 -4 30 -9z m-1747 -27
c-7 -2 -21 -2 -30 0 -10 3 -4 5 12 5 17 0 24 -2 18 -5z m267 -13 l23 -20 -22
0 c-12 0 -19 4 -16 10 8 12 8 12 -34 0 -25 -7 -37 -6 -47 4 -11 12 -7 13 26 9
26 -4 40 -2 40 6 0 15 3 14 30 -9z m2107 -6 c-3 -4 -14 -3 -24 0 -15 6 -15 8
-3 16 16 10 39 -4 27 -16z m-2057 6 c0 -5 -5 -10 -11 -10 -5 0 -7 5 -4 10 3 6
8 10 11 10 2 0 4 -4 4 -10z m1655 -10 c8 -13 -15 -13 -35 0 -12 8 -11 10 7 10
12 0 25 -4 28 -10z m29 -16 c3 -8 2 -12 -4 -9 -6 3 -10 -1 -10 -9 0 -18 -16
-21 -25 -5 -5 8 18 36 31 39 1 0 5 -7 8 -16z m-1825 -24 c4 0 12 5 18 11 6 6
17 9 25 6 9 -3 7 -7 -7 -13 -11 -4 -26 -14 -33 -21 -7 -7 -19 -13 -25 -12 -9
0 -8 2 0 6 7 2 11 14 9 26 -1 12 -1 16 1 10 3 -7 8 -13 12 -13z m1761 20 c0
-13 -11 -13 -30 0 -12 8 -11 10 8 10 12 0 22 -4 22 -10z m504 -30 c-6 -6 -10
-2 -11 12 -2 16 1 18 10 9 7 -7 8 -14 1 -21z m-311 -27 c-13 -7 -30 -10 -38
-6 -8 3 -15 1 -15 -5 0 -16 55 -19 69 -4 7 7 16 10 19 7 4 -4 -2 -13 -12 -21
-20 -14 -20 -14 0 -30 17 -14 17 -15 1 -10 -10 3 -21 6 -23 6 -2 0 -4 7 -4 15
0 9 -9 15 -21 15 -11 0 -32 9 -45 19 -19 15 -21 20 -9 25 8 3 29 3 45 -1 24
-4 30 -2 30 11 0 14 3 14 13 4 12 -10 10 -15 -10 -25z m356 4 c0 -21 -1 -21
-9 -2 -12 28 -12 37 0 30 6 -3 10 -16 9 -28z m-2729 -6 c0 -5 -6 -11 -12 -14
-9 -3 -7 -10 7 -21 11 -8 15 -16 10 -16 -6 0 -15 4 -20 9 -12 11 -75 2 -75
-10 0 -5 -5 -9 -12 -9 -6 0 -3 9 7 20 10 11 26 20 35 20 10 0 23 7 30 15 14
17 30 20 30 6z m2729 -52 c-22 -13 -31 -11 -17 5 7 8 17 12 22 9 4 -3 2 -9 -5
-14z m96 -10 c-3 -4 0 -17 6 -27 7 -12 9 -27 4 -38 -8 -18 -8 -18 -12 1 -7 36
-26 65 -42 66 -12 0 -10 3 4 8 23 9 47 3 40 -10z m-2858 5 c-3 -3 -12 -4 -19
-1 -8 3 -5 6 6 6 11 1 17 -2 13 -5z m230 -10 c-3 -3 -12 -4 -19 -1 -8 3 -5 6
6 6 11 1 17 -2 13 -5z m2255 -10 c-13 -9 -26 -13 -30 -9 -8 8 17 25 38 25 9 0
6 -6 -8 -16z m105 10 c-3 -3 -12 -4 -19 -1 -8 3 -5 6 6 6 11 1 17 -2 13 -5z
m-2370 -31 c-9 -9 -20 -13 -24 -9 -4 4 -1 11 7 16 25 16 35 11 17 -7z m-354
-15 c-4 -7 -8 -16 -8 -20 0 -12 -15 -21 -15 -9 0 7 -5 9 -11 6 -6 -4 -5 2 3
14 7 12 19 21 26 21 8 0 10 -5 5 -12z m2718 -5 c13 -17 13 -17 -6 -3 -11 8
-22 16 -24 17 -2 2 0 3 6 3 6 0 17 -8 24 -17z m-2798 -51 c-3 -12 -9 -22 -14
-22 -12 0 -11 7 3 30 15 24 19 21 11 -8z m357 24 c0 -2 -7 -7 -16 -10 -8 -3
-12 -2 -9 4 6 10 25 14 25 6z m2515 -22 c13 -14 21 -32 18 -40 -3 -9 2 -14 13
-15 15 0 15 -2 4 -6 -8 -3 -17 -9 -20 -13 -3 -4 -11 -2 -18 6 -7 8 -8 14 -2
14 31 0 -9 63 -47 73 -14 4 -13 5 5 6 13 0 33 -10 47 -25z m-2582 -2 c3 -4 -6
-20 -19 -35 -22 -26 -24 -26 -24 -8 0 12 5 21 10 21 6 0 10 7 10 15 0 16 15
21 23 7z m2960 -61 c-4 -6 -43 30 -43 40 0 5 10 -2 23 -14 13 -12 22 -24 20
-26z m-3058 -1 c-28 -12 -45 -12 -45 0 0 6 15 10 33 9 27 0 29 -2 12 -9z
m2775 -10 c0 -5 -4 -10 -10 -10 -5 0 -10 5 -10 10 0 6 5 10 10 10 6 0 10 -4
10 -10z m-2950 -6 c0 -8 -19 -13 -24 -6 -3 5 1 9 9 9 8 0 15 -2 15 -3z m3258
-29 c6 -26 -20 -38 -36 -17 -11 15 -14 15 -22 2 -8 -13 -10 -13 -10 2 0 26 21
33 36 13 8 -10 17 -16 20 -12 4 4 1 14 -7 23 -12 15 -12 17 1 12 8 -2 17 -13
18 -23z m-3358 -5 c0 -5 -2 -10 -4 -10 -2 0 -12 -3 -22 -7 -16 -6 -17 -5 -4
10 17 19 30 22 30 7z m260 0 c0 -5 -5 -10 -11 -10 -5 0 -7 5 -4 10 3 6 8 10
11 10 2 0 4 -4 4 -10z m2787 -12 c-3 -8 -6 -5 -6 6 -1 11 2 17 5 13 3 -3 4
-12 1 -19z m-2841 -7 c-4 -5 0 -11 6 -14 8 -2 9 -8 4 -13 -5 -5 -11 -4 -13 4
-8 21 -25 13 -18 -8 4 -11 2 -20 -4 -20 -15 0 -14 47 2 53 20 9 29 8 23 -2z
m3204 -76 c0 -3 -4 -5 -9 -5 -5 0 -14 14 -20 31 -16 46 -14 48 9 11 11 -18 20
-35 20 -37z m-3480 36 c0 -3 -11 -7 -25 -7 -24 -2 -32 6 -19 18 7 7 44 -2 44
-11z m3524 -43 c13 -8 10 -10 -33 -25 l-34 -12 22 23 c15 15 19 26 12 31 -6 3
-11 14 -11 23 0 12 4 10 17 -8 9 -14 21 -28 27 -32z m-3520 5 c-5 -5 -12 -12
-15 -16 -3 -5 -9 -2 -12 7 -5 12 0 16 15 16 12 0 17 -3 12 -7z m141 -12 c3 -6
-3 -14 -13 -20 -14 -8 -18 -6 -19 10 -2 20 21 27 32 10z m65 -6 c0 -8 -9 -20
-20 -27 -11 -7 -20 -18 -20 -25 0 -6 -4 -14 -9 -17 -10 -7 -9 13 2 31 4 6 4
19 1 30 -4 14 -4 15 4 4 11 -15 36 -6 27 10 -4 5 -1 9 4 9 6 0 11 -7 11 -15z
m-310 -5 c0 -5 -4 -10 -10 -10 -5 0 -10 5 -10 10 0 6 5 10 10 10 6 0 10 -4 10
-10z m7 -38 c-10 -10 -14 -22 -10 -26 4 -4 -1 -4 -10 0 -17 6 -16 8 4 30 26
28 41 23 16 -4z m3653 -15 c0 -5 -7 -4 -15 3 -12 10 -15 10 -15 0 0 -8 -2 -11
-5 -9 -2 3 -1 15 2 28 6 23 7 23 20 6 7 -11 13 -23 13 -28z m-3630 3 c0 -5 -5
-10 -11 -10 -5 0 -7 5 -4 10 3 6 8 10 11 10 2 0 4 -4 4 -10z m-89 -27 c7 -10
9 -15 4 -10 -4 4 -17 0 -27 -10 -21 -19 -23 -11 -6 17 15 24 13 24 29 3z m31
-51 c9 -9 3 -11 -24 -10 -28 1 -33 4 -24 13 13 15 32 13 48 -3z m-98 -10 c3
-5 -1 -9 -9 -9 -8 0 -12 4 -9 9 3 4 7 8 9 8 2 0 6 -4 9 -8z m649 -28 c-9 -14
-19 -21 -22 -15 -4 6 -12 7 -21 1 -26 -16 -36 -11 -12 6 13 9 26 13 29 10 10
-9 34 15 26 27 -3 6 -1 7 5 3 9 -5 7 -14 -5 -32z m-433 10 c0 -2 -7 -4 -15 -4
-8 0 -15 4 -15 10 0 5 7 7 15 4 8 -4 15 -8 15 -10z m50 6 c-13 -9 -13 -11 0
-20 13 -8 13 -11 -2 -26 -17 -17 -38 -12 -38 11 0 17 27 45 43 45 7 0 6 -4 -3
-10z m3314 -6 c9 -24 2 -26 -12 -4 -7 11 -8 20 -3 20 5 0 12 -7 15 -16z m-20
-20 c4 -10 1 -14 -6 -12 -15 5 -23 28 -10 28 5 0 13 -7 16 -16z m-3598 -32
c-11 -11 -16 -12 -16 -4 0 18 24 43 29 30 2 -5 -4 -17 -13 -26z m249 28 c-3
-5 -10 -10 -16 -10 -5 0 -9 5 -9 10 0 6 7 10 16 10 8 0 12 -4 9 -10z m-45 -30
c0 -5 -4 -10 -10 -10 -5 0 -10 5 -10 10 0 6 5 10 10 10 6 0 10 -4 10 -10z
m380 0 c0 -5 -8 -10 -17 -10 -15 0 -16 2 -3 10 19 12 20 12 20 0z m47 -6 c-3
-3 -12 -4 -19 -1 -8 3 -5 6 6 6 11 1 17 -2 13 -5z m-383 -16 c-3 -7 -19 -23
-35 -36 -23 -19 -29 -20 -29 -8 0 9 8 25 18 35 19 22 54 28 46 9z m3426 2 c0
-5 -4 -10 -10 -10 -5 0 -10 5 -10 10 0 6 5 10 10 10 6 0 10 -4 10 -10z m-3643
-15 c0 -8 -6 -15 -14 -15 -17 0 -17 17 0 23 6 3 12 6 13 6 0 1 1 -6 1 -14z
m573 -9 c0 -3 -4 -8 -10 -11 -5 -3 -10 -1 -10 4 0 6 5 11 10 11 6 0 10 -2 10
-4z m3297 -38 c-3 -8 -6 -5 -6 6 -1 11 2 17 5 13 3 -3 4 -12 1 -19z m-3967 -3
c-10 -11 -10 -19 -2 -27 6 -6 8 -17 5 -24 -3 -8 0 -14 7 -14 6 0 8 -5 4 -12
-5 -8 -12 -3 -20 17 l-11 28 -18 -27 c-21 -32 -32 -28 -13 6 15 26 49 68 56
68 2 0 -1 -7 -8 -15z m569 8 c-3 -21 2 -26 12 -13 9 13 10 13 6 -1 -3 -9 0
-22 6 -28 8 -8 8 -11 -1 -11 -7 0 -12 5 -12 11 0 5 -15 15 -32 21 -33 12 -33
12 -8 19 14 4 26 7 28 8 1 1 1 -2 1 -6z m55 -24 c-8 -14 -21 -11 -21 5 0 8 6
12 14 9 7 -3 10 -9 7 -14z m-534 1 c0 -5 -4 -10 -10 -10 -5 0 -10 5 -10 10 0
6 5 10 10 10 6 0 10 -4 10 -10z m3664 -37 c14 -24 23 -43 18 -43 -9 0 -52 72
-52 86 0 10 3 6 34 -43z m253 32 c-4 -8 -2 -17 3 -20 6 -4 10 -11 10 -16 0 -6
-7 -4 -15 5 -18 17 -20 46 -4 46 6 0 9 -7 6 -15z m20 -7 c-3 -8 -6 -5 -6 6 -1
11 2 17 5 13 3 -3 4 -12 1 -19z m-3537 2 c0 -5 -7 -10 -15 -10 -8 0 -15 5 -15
10 0 6 7 10 15 10 8 0 15 -4 15 -10z m3283 -5 c-3 -9 -8 -14 -10 -11 -3 3 -2
9 2 15 9 16 15 13 8 -4z m-3322 -28 c-13 -13 -26 -3 -16 12 3 6 11 8 17 5 6
-4 6 -10 -1 -17z m44 -17 c-3 -38 -6 -41 -27 -19 -16 17 -16 18 3 24 10 4 19
11 19 16 0 5 2 9 4 9 2 0 3 -14 1 -30z m3565 -25 c0 -16 -3 -14 -15 9 -19 36
-19 56 0 30 8 -10 14 -28 15 -39z m-3630 9 c0 -3 -6 -1 -14 5 -7 6 -22 8 -32
5 -18 -6 -18 -6 0 8 16 13 22 13 33 2 7 -7 13 -16 13 -20z m144 17 c-5 -5 -20
-11 -34 -15 -14 -3 -19 -3 -12 0 6 3 9 10 6 16 -4 6 1 8 15 3 14 -4 21 -2 21
6 0 7 3 9 7 6 4 -4 2 -11 -3 -16z m-584 -5 c0 -2 -7 -7 -16 -10 -8 -3 -12 -2
-9 4 6 10 25 14 25 6z m155 -16 c-3 -5 -13 -10 -21 -10 -8 0 -12 5 -9 10 3 6
13 10 21 10 8 0 12 -4 9 -10z m3886 -33 c-8 -8 -11 -3 -11 19 1 25 2 27 11 11
8 -14 8 -22 0 -30z m-3817 21 c12 -11 11 -18 -1 -41 -18 -36 -35 -30 -38 13
-2 31 -1 33 8 13 11 -26 27 -30 27 -8 0 8 -4 15 -10 15 -5 0 -10 5 -10 10 0
13 8 13 24 -2z m256 -14 c0 -9 -5 -14 -12 -12 -18 6 -21 28 -4 28 9 0 16 -7
16 -16z m43 -8 c-10 -13 -19 -23 -21 -21 -7 6 19 45 29 45 5 0 2 -11 -8 -24z
m-209 -21 c-4 -8 -11 -15 -16 -15 -6 0 -5 6 2 15 7 8 14 15 16 15 2 0 1 -7 -2
-15z m36 -5 c0 -5 -5 -10 -11 -10 -5 0 -7 5 -4 10 3 6 8 10 11 10 2 0 4 -4 4
-10z m93 -2 c16 -18 17 -41 1 -56 -15 -14 -15 -14 -19 36 -2 35 0 38 18 20z
m3464 -23 c0 -8 -4 -15 -8 -15 -4 0 -9 7 -13 15 -3 9 0 15 8 15 7 0 13 -7 13
-15z m-3035 -26 c-18 -17 -32 -36 -32 -41 0 -5 -5 -6 -10 -3 -6 4 -8 11 -5 16
4 5 1 9 -5 9 -6 0 -8 5 -4 11 5 8 8 8 13 0 5 -7 15 -3 31 14 13 14 28 25 34
25 5 0 -5 -14 -22 -31z m1201 4 c-18 -2 -48 -2 -65 0 -18 2 -4 4 32 4 36 0 50
-2 33 -4z m105 -10 c-10 -2 -26 -2 -35 0 -10 3 -2 5 17 5 19 0 27 -2 18 -5z
m-43 -13 l50 -7 -42 -2 c-24 0 -43 -5 -43 -11 0 -5 -8 -6 -17 -3 -15 6 -15 7
3 15 12 5 -3 7 -41 4 -38 -3 -53 -1 -40 4 25 11 65 11 130 0z m130 1 c9 -15
-28 -31 -46 -20 -10 6 -6 9 16 10 26 0 27 2 10 9 -16 7 -17 9 -3 9 9 1 19 -3
23 -8z m-1840 -21 c-3 -5 -12 -10 -18 -10 -7 0 -6 4 3 10 19 12 23 12 15 0z
m1878 -10 c3 -11 3 -20 1 -20 -2 0 -8 9 -14 20 -6 11 -7 20 -2 20 6 0 12 -9
15 -20z m-1945 -7 c-12 -15 -48 -17 -48 -3 0 6 -5 10 -11 10 -5 0 -7 -4 -4
-10 3 -6 -1 -7 -9 -4 -31 12 -15 21 34 21 39 -1 47 -4 38 -14z m1338 -10 c-10
-10 -19 5 -10 18 6 11 8 11 12 0 2 -7 1 -15 -2 -18z m2244 17 c0 -5 -2 -10 -4
-10 -3 0 -8 5 -11 10 -3 6 -1 10 4 10 6 0 11 -4 11 -10z m-1800 -4 c0 -2 -8
-10 -17 -17 -16 -13 -17 -12 -4 4 13 16 21 21 21 13z m232 -16 c20 -12 27 -20
16 -20 -9 0 -23 -3 -31 -6 -10 -3 -16 3 -19 20 -6 31 -7 31 34 6z m-1982 5 c0
-9 -34 -45 -43 -45 -10 0 25 49 36 50 4 0 7 -2 7 -5z m334 -27 c-19 -21 -19
-21 1 -14 14 5 17 4 9 -4 -6 -6 -19 -8 -28 -4 -16 6 -15 9 6 29 29 28 38 23
12 -7z m965 3 l24 -19 -51 -7 c-28 -4 -58 -2 -68 3 -16 9 -15 11 4 21 15 8 22
8 22 1 0 -5 -5 -10 -12 -10 -6 0 -9 -2 -7 -4 2 -3 20 -1 39 3 l35 8 -25 11
c-21 9 -22 11 -5 11 11 0 31 -8 44 -18z m-1749 -11 c0 -11 -4 -20 -10 -20 -5
0 -10 9 -10 20 0 11 5 20 10 20 6 0 10 -9 10 -20z m2490 5 c7 -9 8 -15 2 -15
-5 0 -12 7 -16 15 -3 8 -4 15 -2 15 2 0 9 -7 16 -15z m-27 -22 c-7 -2 -19 -2
-25 0 -7 3 -2 5 12 5 14 0 19 -2 13 -5z m-2113 -23 c-13 -11 -25 -18 -28 -15
-8 8 19 35 36 35 11 0 9 -5 -8 -20z m3630 4 c0 -8 -4 -12 -10 -9 -5 3 -10 10
-10 16 0 5 5 9 10 9 6 0 10 -7 10 -16z m208 -38 c2 -24 0 -27 -8 -16 -7 11
-10 11 -10 2 0 -7 -5 -10 -10 -7 -8 5 -7 11 0 20 7 8 9 24 5 36 -6 19 -5 20 7
9 8 -8 15 -27 16 -44z m-1603 14 c3 -5 1 -10 -4 -10 -6 0 -11 5 -11 10 0 6 2
10 4 10 3 0 8 -4 11 -10z m-1869 -13 c2 -7 0 -24 -5 -38 -5 -13 -10 -18 -10
-11 -1 6 -6 12 -12 12 -5 0 -7 -6 -3 -12 4 -7 3 -9 -1 -5 -17 15 -13 37 6 37
10 0 19 5 19 11 0 6 -9 8 -21 4 -15 -5 -19 -4 -15 4 10 15 36 14 42 -2z m871
-12 l28 -25 -27 11 c-16 7 -28 16 -28 21 0 4 -7 8 -15 8 -18 0 -20 -17 -2 -22
6 -3 -2 -5 -20 -5 l-32 0 21 19 c28 24 42 23 75 -7z m1018 -5 c3 -5 1 -10 -4
-10 -6 0 -11 5 -11 10 0 6 2 10 4 10 3 0 8 -4 11 -10z m-2610 -37 c0 -13 0
-23 -1 -23 0 0 -10 11 -21 24 l-21 24 22 -2 c15 -1 21 -7 21 -23z m662 5 c-3
-8 -6 -5 -6 6 -1 11 2 17 5 13 3 -3 4 -12 1 -19z m3327 -20 c-4 -31 -3 -39 5
-29 7 11 8 2 4 -30 -7 -56 -13 -63 -13 -15 0 20 -4 35 -9 32 -9 -6 -9 -1 4 57
9 43 16 32 9 -15z m-1406 7 c-3 -3 -9 2 -12 12 -6 14 -5 15 5 6 7 -7 10 -15 7
-18z m-1938 -5 c0 -5 -5 -10 -11 -10 -5 0 -7 5 -4 10 3 6 8 10 11 10 2 0 4 -4
4 -10z m-86 -24 c-3 -9 -13 -16 -22 -16 -13 0 -12 3 3 20 20 23 29 21 19 -4z
m42 -1 c-26 -19 -42 -19 -26 0 7 8 20 15 29 15 13 -1 13 -3 -3 -15z m2034 -6
c0 -5 -7 -9 -15 -9 -8 0 -15 7 -15 15 0 9 6 12 15 9 8 -4 15 -10 15 -15z
m-2553 -11 c2 -17 0 -19 -7 -8 -5 8 -6 18 -4 22 8 12 10 10 11 -14z m263 1 c0
-14 -17 -10 -23 5 -4 10 -1 13 9 9 7 -3 14 -9 14 -14z m1357 4 c-4 -4 7 -13
25 -21 19 -8 27 -16 20 -19 -17 -6 -64 25 -57 37 4 6 9 10 12 10 4 0 3 -3 0
-7z m133 -13 c-20 -3 -41 -10 -48 -14 -7 -4 -22 0 -34 8 -17 12 -19 16 -6 16
9 0 19 -6 21 -12 4 -10 8 -10 14 -2 10 15 42 22 68 15 15 -4 11 -7 -15 -11z
m-1704 -7 c-15 -8 -30 -12 -34 -9 -3 3 0 6 7 6 7 0 10 4 7 9 -3 5 6 9 21 9
l27 0 -28 -15z m574 7 c0 -5 -4 -10 -10 -10 -5 0 -10 5 -10 10 0 6 5 10 10 10
6 0 10 -4 10 -10z m721 -6 c-17 -13 -21 -22 -16 -43 4 -17 3 -21 -4 -12 -5 8
-14 10 -21 6 -13 -8 -11 -4 20 43 8 12 21 22 30 22 9 0 6 -6 -9 -16z m744 6
c-3 -5 -12 -10 -18 -10 -7 0 -6 4 3 10 19 12 23 12 15 0z m85 -2 c0 -4 -9 -8
-20 -8 -11 0 -20 -5 -20 -12 0 -15 -13 -1 -16 17 -2 11 6 15 27 13 16 -1 29
-6 29 -10z m-2190 -25 c0 -13 -3 -13 -15 -3 -8 7 -15 16 -15 21 0 5 7 6 15 3
8 -4 15 -13 15 -21z m2591 0 c-8 -15 -10 -15 -11 -2 0 17 10 32 18 25 2 -3 -1
-13 -7 -23z m-1294 -15 c-3 -8 -6 -5 -6 6 -1 11 2 17 5 13 3 -3 4 -12 1 -19z
m1244 8 c12 6 12 5 0 -9 -19 -23 -31 -21 -31 6 0 16 3 18 9 8 5 -8 14 -10 22
-5z m-2138 -16 c3 -14 0 -20 -11 -20 -8 0 -12 3 -9 7 4 3 2 12 -4 20 -9 10 -8
13 4 13 8 0 17 -9 20 -20z m2230 5 c4 -8 2 -17 -3 -20 -6 -4 -10 3 -10 14 0
25 6 27 13 6z m-2563 -9 c0 -7 -7 -19 -15 -26 -9 -8 -15 -9 -15 -2 0 6 5 14
10 17 6 4 8 11 5 16 -4 5 -1 9 4 9 6 0 11 -6 11 -14z m210 -1 c0 -8 -4 -15 -9
-15 -13 0 -22 16 -14 24 11 11 23 6 23 -9z m75 5 c-3 -5 -1 -10 6 -10 7 0 10
-3 6 -6 -10 -10 -39 5 -32 16 3 5 11 10 16 10 6 0 7 -4 4 -10z m3778 -10 c3
-11 2 -22 -2 -24 -4 -3 -8 6 -9 20 -2 29 4 31 11 4z m-4039 -6 c3 -8 2 -12 -4
-9 -6 3 -10 10 -10 16 0 14 7 11 14 -7z m1186 6 c13 -8 13 -10 -2 -10 -9 0
-20 5 -23 10 -8 13 5 13 25 0z m-677 -22 c4 -10 8 -9 17 2 13 17 11 11 -14
-44 -19 -42 -32 -44 -17 -2 7 17 7 26 1 26 -6 0 -10 7 -10 15 0 18 16 20 23 3z
m1727 2 c24 -15 7 -18 -20 -3 -14 7 -18 13 -10 13 8 0 22 -4 30 -10z m1587
-12 c-3 -8 -6 -5 -6 6 -1 11 2 17 5 13 3 -3 4 -12 1 -19z m21 -46 c-5 -18 -7
-48 -4 -65 6 -30 5 -30 -5 -7 -6 15 -8 48 -3 85 5 42 9 54 14 40 4 -11 3 -35
-2 -53z m-3848 37 c0 -5 5 -7 12 -3 7 4 8 3 4 -4 -4 -6 -13 -9 -21 -5 -17 6
-20 23 -5 23 6 0 10 -5 10 -11z m1308 -69 c-14 -22 -24 -19 -15 5 4 8 11 15
17 15 6 0 6 -7 -2 -20z m49 14 c-3 -3 -12 -4 -19 -1 -8 3 -5 6 6 6 11 1 17 -2
13 -5z m965 -60 c-2 -53 -12 -55 -13 -3 -1 41 -2 42 -9 14 -6 -23 -8 -25 -9
-8 0 12 2 29 5 38 11 27 27 0 26 -41z m277 8 c1 -7 -3 -10 -9 -7 -6 4 -10 -7
-10 -26 0 -18 -3 -30 -6 -26 -3 3 -3 30 1 59 6 41 10 48 16 33 4 -11 8 -26 8
-33z m-1555 13 c-4 -8 -11 -15 -16 -15 -6 0 -5 6 2 15 7 8 14 15 16 15 2 0 1
-7 -2 -15z m-622 -39 c8 7 20 -45 13 -56 -4 -6 -1 -10 4 -10 6 0 11 -5 11 -11
0 -8 -4 -9 -13 0 -8 6 -17 7 -21 3 -4 -4 -4 6 -1 21 6 23 4 29 -14 34 -21 5
-26 14 -14 26 3 4 11 2 18 -3 7 -5 14 -7 17 -4z m878 -6 c0 -5 -9 -6 -20 -3
-11 3 -17 9 -15 14 7 10 35 1 35 -11z m-1080 -15 c0 -16 6 -25 15 -25 8 0 15
-9 15 -20 0 -11 5 -17 13 -15 6 3 18 -4 25 -15 7 -12 8 -20 2 -20 -5 0 -10 3
-10 8 0 4 -13 13 -30 20 -16 8 -30 18 -30 24 0 6 -7 16 -16 22 -9 7 -12 18 -8
29 9 25 24 21 24 -8z m112 13 c-9 -9 -15 -9 -24 0 -9 9 -7 12 12 12 19 0 21
-3 12 -12z m-67 -27 c-6 -5 -25 10 -25 20 0 5 6 4 14 -3 8 -7 12 -15 11 -17z
m992 -8 c-9 -9 -19 -14 -22 -11 -3 3 2 13 11 22 9 9 19 14 22 11 3 -3 -2 -13
-11 -22z m-867 7 c0 -5 -4 -10 -10 -10 -5 0 -10 5 -10 10 0 6 5 10 10 10 6 0
10 -4 10 -10z m830 -25 c0 -8 5 -15 10 -15 7 0 6 -5 -2 -13 -9 -10 -15 -11
-24 -3 -8 7 -8 13 -2 17 6 4 7 12 4 18 -4 6 -2 11 3 11 6 0 11 -7 11 -15z
m1394 -19 c-3 -15 -8 -25 -11 -23 -2 3 -1 17 3 31 3 15 8 25 11 23 2 -3 1 -17
-3 -31z m-2287 -38 c-3 -8 -6 -5 -6 6 -1 11 2 17 5 13 3 -3 4 -12 1 -19z m213
1 c0 -5 -7 -9 -15 -9 -15 0 -20 12 -9 23 8 8 24 -1 24 -14z m2067 -31 c-3 -7
-5 -2 -5 12 0 14 2 19 5 13 2 -7 2 -19 0 -25z m-1681 6 c-4 -9 -1 -23 6 -31 9
-11 9 -16 -3 -24 -20 -13 -29 -11 -29 5 0 8 -6 16 -12 19 -9 3 -8 10 6 26 23
25 41 28 32 5z m-341 -14 c0 -5 9 -16 20 -24 11 -8 16 -18 11 -23 -5 -4 -11
-2 -13 5 -5 14 -33 16 -33 2 0 -5 -9 -10 -20 -10 -15 0 -19 6 -18 25 2 17 8
25 20 25 10 0 18 5 18 12 0 6 3 8 8 4 4 -4 7 -12 7 -16z m-180 -11 c11 -16 1
-19 -13 -3 -7 8 -8 14 -3 14 5 0 13 -5 16 -11z m42 -4 c0 -18 -19 -15 -25 3
-2 7 3 12 11 12 7 0 14 -7 14 -15z m439 -69 c-2 -6 -5 -3 -5 7 -1 19 -21 24
-21 5 0 -6 -3 -9 -6 -6 -3 4 0 17 7 29 l12 23 9 -24 c5 -13 7 -28 4 -34z
m-286 14 c0 -5 -4 -10 -10 -10 -5 0 -10 5 -10 10 0 6 5 10 10 10 6 0 10 -4 10
-10z m1643 -104 c-4 -26 -3 -37 5 -32 9 5 9 -3 2 -34 0 -3 -8 7 -16 23 -11 21
-12 32 -4 48 6 11 9 25 7 32 -3 7 -12 -4 -21 -23 -18 -39 -17 -29 4 44 l15 48
7 -33 c4 -19 4 -52 1 -73z m-1223 62 c0 -5 0 -11 1 -15 0 -4 -9 -10 -20 -15
-18 -6 -19 -5 -11 17 8 20 6 25 -6 25 -8 0 -12 4 -9 10 6 10 45 -9 45 -22z
m-336 13 c3 -5 -2 -12 -11 -15 -14 -6 -14 -8 3 -21 16 -12 20 -11 24 1 5 13 9
12 23 -4 18 -19 17 -20 -12 -18 -37 2 -64 26 -55 49 7 19 20 22 28 8z m1899
-95 c-6 -10 -9 -1 -9 27 -1 38 0 40 8 15 5 -15 6 -34 1 -42z m-1937 29 c-17
-13 -17 -15 -2 -31 11 -11 14 -20 8 -26 -14 -14 -44 -6 -50 12 -5 13 -3 13 12
1 9 -8 19 -11 23 -7 8 7 -27 35 -44 36 -7 0 -13 5 -13 11 0 6 7 9 15 5 8 -3
25 -1 37 4 32 13 36 11 14 -5z m344 1 c0 -3 -4 -8 -10 -11 -5 -3 -10 -1 -10 4
0 6 5 11 10 11 6 0 10 -2 10 -4z m47 -2 c-3 -3 -12 -4 -19 -1 -8 3 -5 6 6 6
11 1 17 -2 13 -5z m-457 -35 c0 -6 -4 -7 -10 -4 -5 3 -10 11 -10 16 0 6 5 7
10 4 6 -3 10 -11 10 -16z m425 1 c-3 -5 -10 -10 -16 -10 -5 0 -9 5 -9 10 0 6
7 10 16 10 8 0 12 -4 9 -10z m1190 -19 c-3 -6 -11 -8 -17 -5 -6 4 -5 9 3 15
16 10 23 4 14 -10z m-1205 -15 c0 -3 -4 -8 -10 -11 -5 -3 -10 -1 -10 4 0 6 5
11 10 11 6 0 10 -2 10 -4z m-37 -13 c-7 -2 -19 -2 -25 0 -7 3 -2 5 12 5 14 0
19 -2 13 -5z m2927 -3 c0 -5 -5 -10 -11 -10 -5 0 -7 5 -4 10 3 6 8 10 11 10 2
0 4 -4 4 -10z m170 -20 c0 -16 0 -33 1 -37 0 -4 -4 -9 -9 -11 -10 -3 -22 65
-13 73 12 13 21 2 21 -25z m-1880 -26 c0 -8 -4 -13 -9 -9 -13 7 -1 -68 12 -76
5 -4 5 -9 -2 -13 -6 -4 -11 -2 -11 4 0 6 -5 8 -10 5 -6 -4 -8 -10 -6 -14 3 -3
-4 -7 -14 -7 -18 0 -18 1 1 27 23 32 26 64 4 35 -14 -18 -15 -18 -15 -2 0 18
30 65 43 66 4 0 7 -7 7 -16z m-1386 -26 c-3 -4 0 -8 6 -8 7 0 10 7 6 15 -3 8
-1 15 4 15 14 0 22 -18 11 -25 -6 -3 -8 -19 -6 -35 2 -17 0 -28 -5 -25 -5 3
-7 12 -3 20 3 8 0 15 -6 15 -6 0 -11 -5 -11 -11 0 -5 -5 -7 -11 -3 -8 5 -8 9
1 14 8 5 9 10 2 14 -6 3 -8 15 -5 27 4 15 8 17 14 8 4 -7 5 -17 3 -21z m1428
10 c-7 -7 -12 -8 -12 -2 0 6 3 14 7 17 3 4 9 5 12 2 2 -3 -1 -11 -7 -17z
m-1312 -19 c0 -5 -4 -9 -9 -9 -5 0 -16 -3 -25 -6 -10 -4 -16 -1 -16 9 0 8 6
17 13 20 16 5 37 -3 37 -14z m1643 6 c-3 -9 -8 -14 -10 -11 -3 3 -2 9 2 15 9
16 15 13 8 -4z m-33 -6 c0 -5 -4 -7 -10 -4 -5 3 -10 1 -10 -4 0 -6 -7 -11 -15
-11 -13 0 -14 3 -3 15 15 17 38 20 38 4z m20 -26 c0 -5 -5 -15 -10 -23 -8 -12
-10 -11 -10 8 0 12 5 22 10 22 6 0 10 -3 10 -7z m-420 -22 c0 -5 -6 -11 -12
-13 -7 -3 -13 -22 -13 -45 0 -32 -2 -37 -12 -28 -10 10 -9 21 4 54 15 37 33
55 33 32z m388 -43 c-7 -4 -19 -7 -27 -5 -20 3 -26 27 -8 27 9 0 18 -6 21 -12
4 -9 5 -8 5 2 -3 35 3 44 12 21 7 -18 6 -27 -3 -33z m1542 12 c0 -5 -4 -12
-10 -15 -5 -3 -11 -27 -11 -53 -2 -45 -2 -46 -8 -12 -4 19 -3 46 1 58 4 13 6
28 3 33 -4 5 1 6 9 3 9 -3 16 -10 16 -14z m-186 -6 c3 -8 2 -12 -4 -9 -6 3
-10 -2 -10 -11 0 -10 -3 -15 -6 -11 -6 5 4 47 11 47 1 0 6 -7 9 -16z m197 -53
c-16 -30 -13 -48 4 -25 15 19 15 19 8 -1 -3 -11 -10 -25 -15 -32 -5 -7 -6 -22
-3 -35 7 -21 7 -21 -9 -5 -10 9 -14 22 -10 29 4 6 8 23 10 37 1 14 4 35 7 46
3 11 6 25 7 30 1 6 4 2 7 -7 2 -9 -1 -26 -6 -37z m-1617 -23 c-5 -8 -10 -5
-14 8 -10 25 0 41 12 20 5 -9 6 -21 2 -28z m1411 -42 c0 -41 -3 -72 -7 -69
-14 8 -8 143 6 143 1 0 1 -33 1 -74z m-1853 -38 c-7 -7 -12 -8 -12 -2 0 6 3
14 7 17 3 4 9 5 12 2 2 -3 -1 -11 -7 -17z m329 -11 c-10 -9 -11 -8 -5 6 3 10
9 15 12 12 3 -3 0 -11 -7 -18z m49 3 c0 -11 -7 -20 -15 -20 -17 0 -18 2 -9 24
9 23 24 20 24 -4z m1448 -99 c-7 -2 -6 -6 2 -11 8 -5 5 -9 -9 -13 -18 -4 -19
-2 -10 15 6 11 8 43 5 71 l-5 52 14 -55 c10 -38 11 -56 3 -59z m202 68 c0 -16
-4 -28 -9 -25 -8 5 -3 56 5 56 2 0 4 -14 4 -31z m-2011 -29 c0 -9 -4 -8 -9 5
-5 11 -9 27 -9 35 0 9 4 8 9 -5 5 -11 9 -27 9 -35z m41 16 c0 -3 -4 -8 -10
-11 -5 -3 -10 -1 -10 4 0 6 5 11 10 11 6 0 10 -2 10 -4z m246 -38 c1 -11 -3
-15 -12 -11 -17 6 -19 36 -2 31 6 -2 12 -11 14 -20z m46 -20 c-7 -7 -12 -8
-12 -2 0 6 3 14 7 17 3 4 9 5 12 2 2 -3 -1 -11 -7 -17z m1683 -19 c-5 -20 -10
-27 -15 -19 -4 6 -2 22 4 35 14 31 20 24 11 -16z m-2105 13 c0 -10 -22 -32
-32 -32 -5 0 -3 9 4 20 13 20 28 27 28 12z m350 -42 c-8 -5 -11 -12 -7 -16 3
-4 13 -1 22 6 9 8 15 8 15 2 0 -6 -8 -17 -18 -24 -11 -7 -21 -20 -24 -28 -3
-8 -6 1 -6 20 1 41 5 50 21 50 7 0 6 -4 -3 -10z m1550 -5 c-7 -9 -16 -12 -19
-8 -4 4 -10 11 -15 16 -5 4 3 7 19 7 24 0 26 -2 15 -15z m-54 -97 c-8 -5 -7
-11 2 -20 15 -15 16 -28 2 -28 -5 0 -11 8 -11 18 -1 16 -2 16 -6 0 -2 -10 -8
-18 -13 -18 -5 0 -2 16 6 35 19 46 17 80 -2 40 -13 -25 -14 -26 -9 -5 4 14 9
36 13 50 5 22 7 20 17 -20 8 -32 8 -47 1 -52z m-1921 20 l0 -63 -35 -2 c-19
-1 -28 1 -20 4 8 3 21 12 28 21 14 19 16 56 2 47 -5 -3 -10 -14 -10 -25 0 -10
-7 -21 -16 -24 -24 -9 -32 3 -11 15 9 6 17 17 17 24 0 8 5 15 10 15 6 0 16 11
22 25 6 14 12 25 12 25 1 0 2 -28 1 -62z m2111 -13 c3 -8 1 -22 -5 -32 -9 -16
-10 -15 -11 9 0 15 -5 30 -12 34 -6 4 -9 3 -6 -2 3 -5 0 -15 -8 -22 -12 -11
-15 -10 -20 3 -10 25 14 47 38 34 10 -6 22 -16 24 -24z m-1756 21 c0 -1 -14
-14 -30 -29 -17 -16 -27 -22 -24 -13 4 11 1 16 -10 16 -9 0 -16 6 -16 13 0 10
13 14 40 14 22 0 40 -1 40 -1z m40 -4 c0 -4 -16 -22 -35 -41 -41 -39 -47 -25
-7 18 27 30 42 38 42 23z m1632 -1 c8 11 9 11 6 1 -4 -16 -22 -18 -25 -2 -1 7
0 6 4 -1 4 -8 8 -7 15 2z m104 -79 c-12 -11 -18 7 -10 30 l8 23 4 -23 c2 -13
1 -26 -2 -30z m-253 23 c-3 -9 -8 -14 -10 -11 -3 3 -2 9 2 15 9 16 15 13 8 -4z
m-1603 -19 c0 -2 -7 -9 -15 -16 -13 -11 -14 -10 -9 4 5 14 24 23 24 12z m29
-13 c-33 -43 -65 -73 -76 -73 -7 0 -16 -8 -22 -17 -5 -10 -13 -15 -16 -11 -10
10 20 38 39 38 9 0 15 4 14 9 -2 5 12 23 31 40 39 35 50 40 30 14z m1761 7 c0
-5 -2 -10 -4 -10 -3 0 -8 5 -11 10 -3 6 -1 10 4 10 6 0 11 -4 11 -10z m-2144
-44 c0 -13 -4 -22 -8 -20 -4 3 -18 0 -30 -7 -19 -9 -18 -6 7 19 17 17 31 31
31 31 1 1 1 -10 0 -23z m1904 -66 c-12 -23 -24 -40 -26 -37 -3 3 4 24 16 47
12 23 24 40 26 37 3 -3 -4 -24 -16 -47z m-1650 25 c0 -12 -5 -13 -17 -7 -10 5
-24 7 -30 5 -7 -3 -13 0 -13 6 0 6 14 11 30 11 20 0 30 -5 30 -15z m1662 -57
c-8 -8 -9 -4 -5 13 4 13 8 18 11 10 2 -7 -1 -18 -6 -23z m201 15 c2 -5 -2 -19
-9 -33 l-13 -25 2 32 c2 31 11 42 20 26z m-2150 -20 c-7 -2 -19 -2 -25 0 -7 3
-2 5 12 5 14 0 19 -2 13 -5z m257 -13 c0 -5 -7 -10 -15 -10 -8 0 -15 5 -15 10
0 6 7 10 15 10 8 0 15 -4 15 -10z m1906 -46 c-8 -31 -36 -32 -35 -1 0 12 3 16
6 10 5 -14 24 -18 22 -5 -1 4 0 18 1 32 2 19 3 21 7 7 3 -10 2 -29 -1 -43z
m-295 -17 c-10 -9 -11 -8 -5 6 3 10 9 15 12 12 3 -3 0 -11 -7 -18z m-1771 -14
c-19 -3 -39 -8 -43 -12 -13 -13 -16 -61 -4 -61 6 0 2 -6 -9 -14 -10 -8 -20
-10 -22 -5 -5 13 -29 11 -36 -3 -5 -10 -7 -10 -12 0 -3 6 -10 10 -15 6 -5 -3
-9 0 -9 6 0 7 7 9 16 6 9 -4 22 -2 29 4 9 8 15 8 20 0 10 -16 21 -12 22 10 1
11 -2 18 -6 16 -4 -3 -8 1 -8 9 0 8 3 13 5 10 3 -3 11 4 19 15 10 15 24 20 51
18 l37 -1 -35 -4z m1860 -3 c0 -5 -4 -10 -10 -10 -5 0 -10 5 -10 10 0 6 5 10
10 10 6 0 10 -4 10 -10z m-100 -9 c0 -6 -4 -13 -10 -16 -5 -3 -10 1 -10 9 0 9
5 16 10 16 6 0 10 -4 10 -9z m282 -13 c-7 -7 -13 -21 -13 -32 -1 -17 -2 -17
-6 -4 -5 19 15 63 25 54 3 -4 0 -12 -6 -18z m-254 0 c-3 -14 -42 -48 -54 -48
-4 0 5 14 21 30 32 33 36 36 33 18z m-2088 -41 c-8 -9 -9 -7 -4 8 7 19 7 19
-13 3 -29 -26 -36 -22 -11 7 19 22 23 23 31 9 6 -10 5 -20 -3 -27z m-55 13
c-20 -23 -29 -21 -19 4 3 9 13 16 22 16 13 0 12 -3 -3 -20z m2278 -26 c-7 -3
-9 -13 -6 -22 4 -15 3 -15 -6 -2 -15 22 -14 30 7 29 9 0 12 -3 5 -5z m37 -4
c0 -5 -4 -10 -10 -10 -5 0 -10 5 -10 10 0 6 5 10 10 10 6 0 10 -4 10 -10z
m-2423 -49 c0 -11 -5 -18 -9 -15 -4 3 -5 11 -1 19 7 21 12 19 10 -4z m90 12
c-4 -3 -3 -11 2 -17 6 -7 1 -11 -15 -11 -37 0 -28 31 10 34 5 1 6 -2 3 -6z
m2059 -14 c19 -22 19 -22 -3 -10 -24 12 -39 31 -25 31 5 0 17 -10 28 -21z
m190 -17 c-4 -3 -11 0 -16 8 -15 24 -11 33 6 15 9 -9 13 -19 10 -23z m-2355
-9 c13 -16 12 -17 -3 -4 -17 13 -22 21 -14 21 2 0 10 -8 17 -17z m273 -8 c-4
-8 -8 -15 -10 -15 -2 0 -4 7 -4 15 0 8 4 15 10 15 5 0 7 -7 4 -15z m39 -5
c-10 -11 -22 -20 -27 -20 -5 0 -1 9 9 20 10 11 22 20 26 20 5 0 1 -9 -8 -20z
m2069 -10 c-14 -16 -29 -27 -34 -24 -13 8 20 50 40 51 17 1 16 -2 -6 -27z m51
10 c-3 -12 -8 -19 -11 -16 -5 6 5 36 12 36 2 0 2 -9 -1 -20z m-2490 -41 c-4
-16 -8 -17 -14 -7 -13 19 -11 28 5 28 9 0 12 -7 9 -21z m325 -4 c-3 -3 -9 2
-12 12 -6 14 -5 15 5 6 7 -7 10 -15 7 -18z m1812 21 c0 -3 -4 -8 -10 -11 -5
-3 -10 -1 -10 4 0 6 5 11 10 11 6 0 10 -2 10 -4z m-2170 -26 c0 -5 -5 -10 -11
-10 -5 0 -7 5 -4 10 3 6 8 10 11 10 2 0 4 -4 4 -10z m2160 -5 c0 -1 -12 -2
-26 -2 -17 0 -22 2 -13 7 10 7 39 3 39 -5z m43 -2 c-7 -2 -19 -2 -25 0 -7 3
-2 5 12 5 14 0 19 -2 13 -5z m241 -18 c-8 -20 6 -19 23 3 13 15 13 15 3 -5 -5
-12 -14 -24 -19 -27 -11 -7 -23 22 -15 35 9 14 14 10 8 -6z m-2454 -20 c0 -8
-4 -15 -10 -15 -5 0 -7 7 -4 15 4 8 8 15 10 15 2 0 4 -7 4 -15z m2120 0 c0 -8
-6 -12 -13 -9 -8 3 -20 -2 -27 -11 -7 -8 -18 -15 -24 -15 -12 0 44 49 57 50 4
0 7 -7 7 -15z m-2077 -36 c-6 -6 -17 -8 -24 -3 -9 5 -8 9 7 14 23 9 31 3 17
-11z m2064 -5 c-3 -3 -12 -4 -19 -1 -8 3 -5 6 6 6 11 1 17 -2 13 -5z m293 -12
c0 -4 -9 -8 -20 -8 -11 0 -20 4 -20 8 0 4 9 8 20 8 11 0 20 -4 20 -8z m-57 -8
c9 -10 -12 -46 -24 -39 -14 9 -11 45 4 45 8 0 17 -3 20 -6z m35 -34 c-7 -10
-14 -18 -15 -16 -6 6 9 36 18 36 5 0 4 -9 -3 -20z m-2499 -16 c4 3 7 -4 7 -14
0 -26 -22 -14 -23 13 0 12 1 16 4 9 3 -6 8 -10 12 -8z m2161 -4 c0 -5 -9 -10
-21 -10 -11 0 -17 5 -14 10 3 6 13 10 21 10 8 0 14 -4 14 -10z m264 1 c4 -5 0
-12 -6 -15 -10 -5 -10 -7 0 -12 16 -8 15 -21 -2 -27 -10 -4 -13 -1 -9 9 3 7 1
14 -5 14 -6 0 -8 9 -5 20 6 21 18 26 27 11z m-2384 -11 c0 -5 -5 -10 -11 -10
-5 0 -7 5 -4 10 3 6 8 10 11 10 2 0 4 -4 4 -10z m140 -10 c0 -5 -4 -10 -10
-10 -5 0 -10 5 -10 10 0 6 5 10 10 10 6 0 10 -4 10 -10z m-188 -47 c3 -26 -1
-37 -17 -47 -18 -12 -22 -12 -22 -1 0 8 4 12 9 9 4 -3 8 -1 8 5 0 5 3 17 7 26
5 14 2 16 -15 10 -23 -7 -29 4 -12 21 21 21 38 11 42 -23z m232 22 c-5 -12
-10 -13 -20 -4 -19 15 -18 19 6 19 13 0 18 -5 14 -15z m1766 -20 c-10 -12 -10
-15 0 -15 8 0 11 -2 9 -5 -3 -2 -15 -2 -26 1 -18 5 -19 9 -10 20 7 7 18 13 26
14 11 0 11 -3 1 -15z m-1818 -27 c-7 -7 -12 -8 -12 -2 0 6 3 14 7 17 3 4 9 5
12 2 2 -3 -1 -11 -7 -17z m1768 8 c0 -2 -7 -7 -16 -10 -8 -3 -12 -2 -9 4 6 10
25 14 25 6z m127 -2 c-3 -3 -12 -4 -19 -1 -8 3 -5 6 6 6 11 1 17 -2 13 -5z
m-1851 -15 c3 -6 2 -15 -4 -21 -6 -6 -11 -2 -15 11 -5 22 7 29 19 10z m2079 4
c-30 -8 -40 -19 -43 -49 -3 -39 -12 -43 -12 -5 0 40 17 60 50 59 20 0 21 -1 5
-5z m75 3 c0 -2 -7 -7 -16 -10 -8 -3 -12 -2 -9 4 6 10 25 14 25 6z m-2191 -42
c-6 -7 -8 -22 -5 -31 5 -13 4 -15 -4 -7 -13 13 -2 67 12 58 5 -3 4 -11 -3 -20z
m1747 -4 c0 -24 -41 -28 -50 -4 -3 8 -2 12 4 9 7 -5 32 4 45 15 1 0 1 -9 1
-20z m-81 -20 c-3 -5 -14 -10 -23 -9 -14 0 -13 2 3 9 27 11 27 11 20 0z m341
-25 c-11 -8 -22 -12 -25 -9 -6 6 19 24 34 24 6 -1 1 -7 -9 -15z m16 -25 c-37
-23 -42 -24 -42 -11 0 5 12 14 28 19 44 17 49 13 14 -8z m-2095 -57 c1 -26 0
-27 -13 -8 -11 15 -11 20 -1 27 6 4 12 8 12 8 0 0 1 -12 2 -27z m1993 5 c19
-6 -10 -22 -57 -33 -31 -6 -33 -5 -31 19 2 18 8 26 21 26 16 0 17 -3 7 -15
-13 -16 -3 -20 24 -9 14 5 14 9 4 23 -11 14 -11 14 2 5 8 -6 22 -13 30 -16z
m-2042 1 c-2 -6 -8 -10 -13 -10 -5 0 -11 4 -13 10 -2 6 4 11 13 11 9 0 15 -5
13 -11z m1910 2 c11 -6 8 -14 -12 -36 -15 -16 -29 -25 -33 -22 -3 4 -1 7 5 7
7 0 12 7 12 15 0 8 -4 15 -10 15 -5 0 -10 7 -10 15 0 16 27 20 48 6z m-271
-33 c6 16 30 15 36 -1 3 -8 1 -20 -4 -28 -5 -8 -9 -9 -9 -3 0 6 -16 11 -35 12
-19 1 -35 -3 -35 -8 0 -6 -10 -10 -22 -10 -22 1 -22 1 -3 12 11 7 26 18 34 26
11 11 16 11 23 0 8 -10 11 -10 15 0z m-1882 -35 c-6 -47 -24 -83 -41 -83 -9 0
-7 10 8 35 11 20 18 39 15 42 -6 6 10 43 18 43 2 0 2 -17 0 -37z m27 -30 c2
-23 0 -39 -3 -37 -4 2 -9 -2 -12 -8 -2 -8 -8 -9 -13 -4 -5 5 -4 11 4 13 7 3
12 25 13 56 1 56 6 48 11 -20z m245 45 c-3 -8 -6 -5 -6 6 -1 11 2 17 5 13 3
-3 4 -12 1 -19z m-75 -20 c-2 -10 -6 -18 -7 -18 -1 0 -5 8 -7 18 -3 11 0 19 7
19 7 0 10 -8 7 -19z m52 -33 c-26 -20 -34 -18 -34 6 0 16 4 19 20 14 13 -4 20
-2 21 7 0 11 2 11 6 0 3 -7 -3 -20 -13 -27z m1816 16 c0 -12 -20 -25 -27 -18
-7 7 6 27 18 27 5 0 9 -4 9 -9z m-1870 -26 c0 -8 -4 -15 -10 -15 -5 0 -7 7 -4
15 4 8 8 15 10 15 2 0 4 -7 4 -15z m1553 -17 c3 -10 7 -10 19 0 11 9 18 10 23
2 3 -5 1 -10 -5 -10 -6 0 -9 -4 -6 -9 4 -5 -5 -6 -21 -2 -26 7 -45 31 -25 31
6 0 12 -6 15 -12z m-1520 -13 c4 -8 2 -17 -3 -20 -6 -4 -10 -4 -10 -1 0 2 -3
11 -6 20 -3 9 -2 16 4 16 5 0 12 -7 15 -15z m-283 -46 c0 -6 -8 -18 -17 -27
-16 -16 -16 -16 -10 1 4 10 7 23 7 28 0 5 5 9 10 9 6 0 10 -5 10 -11z m259
-34 c0 -5 -4 -3 -9 5 -5 8 -9 22 -9 30 0 16 17 -16 18 -35z m-224 17 c-3 -3
-11 0 -18 7 -9 10 -8 11 6 5 10 -3 15 -9 12 -12z m1897 -43 c-21 -24 -26 -24
-13 0 6 10 7 21 3 25 -3 4 1 4 10 1 15 -6 15 -8 0 -26z m-1684 -10 c-3 -8 -7
-3 -11 10 -4 17 -3 21 5 13 5 -5 8 -16 6 -23z m1428 -18 c-1 -16 -5 -33 -10
-38 -5 -5 -6 -2 -1 6 6 11 4 13 -8 8 -10 -3 -17 -4 -17 -1 0 5 33 53 36 54 1
0 1 -13 0 -29z m294 21 c0 -5 -9 -17 -20 -27 -16 -14 -23 -16 -32 -7 -9 9 -8
12 5 12 10 0 20 7 23 15 6 16 24 21 24 7z m-1970 -22 c0 -19 -18 -19 -23 -1
-3 14 -1 18 9 14 8 -3 14 -9 14 -13z m237 -22 c-3 -8 -6 -5 -6 6 -1 11 2 17 5
13 3 -3 4 -12 1 -19z m1626 6 c-3 -9 -9 -12 -12 -7 -3 4 -10 11 -15 16 -5 4 0
7 12 7 15 0 20 -4 15 -16z m-1899 -10 c3 -8 2 -12 -4 -9 -6 3 -10 10 -10 16 0
14 7 11 14 -7z m238 -30 c11 -23 -6 -115 -32 -175 -9 -22 -10 -21 -4 9 3 20 2
32 -5 32 -6 0 -11 8 -11 18 0 14 2 15 10 2 7 -12 10 -11 15 5 4 11 11 30 15
42 6 15 5 33 -5 55 -11 28 -15 30 -21 15 -4 -12 -14 -17 -25 -14 -10 3 -24 -1
-30 -9 -10 -12 -9 -13 5 -8 12 5 15 2 10 -10 -8 -21 -30 -21 -38 0 -9 25 -7
64 4 64 6 0 10 -6 10 -12 0 -9 2 -10 8 -2 19 30 79 22 94 -12z m-210 -25 c3
-28 0 -35 -10 -32 -7 3 -11 12 -8 20 3 8 6 27 7 41 1 34 6 19 11 -29z m1905
26 c5 -4 2 -5 -4 -1 -8 4 -13 2 -13 -5 0 -7 -3 -9 -7 -6 -3 4 -12 -1 -19 -11
-12 -16 -13 -16 -14 4 0 11 2 23 5 26 8 7 44 3 52 -7z m-1937 -22 c0 -21 -3
-24 -9 -14 -5 8 -7 20 -4 28 8 21 13 15 13 -14z m220 -25 c-1 -26 -3 -30 -10
-16 -6 9 -7 23 -4 32 9 25 14 19 14 -16z m1431 -25 c12 -16 12 -17 -2 -6 -13
11 -18 9 -29 -12 -7 -14 -10 -28 -7 -31 4 -4 9 0 13 9 5 15 8 15 21 1 9 -8 12
-18 9 -22 -4 -3 -11 0 -16 8 -6 9 -10 10 -10 3 0 -6 -9 -11 -20 -10 -24 2 -24
-2 -3 42 19 40 25 42 44 18z m-1701 -83 c-5 -22 -8 -27 -9 -13 -1 21 9 56 14
51 2 -2 0 -19 -5 -38z m1857 -2 c-3 -8 -6 -5 -6 6 -1 11 2 17 5 13 3 -3 4 -12
1 -19z m-47 -48 c0 -5 -7 -10 -15 -10 -8 0 -15 5 -15 10 0 6 7 10 15 10 8 0
15 -4 15 -10z m-1807 -38 c-3 -12 -10 -22 -15 -22 -5 0 -7 3 -5 8 2 4 7 16 11
26 9 25 17 16 9 -12z m217 14 c-6 -6 -10 -23 -10 -38 0 -43 -16 -33 -18 11 -2
34 0 40 18 38 13 -1 16 -5 10 -11z m1650 -29 c0 -18 -2 -19 -10 -7 -13 20 -13
43 0 35 6 -3 10 -16 10 -28z m-825 -17 c-4 -19 -3 -30 4 -30 6 0 11 -16 11
-37 0 -20 -3 -34 -6 -30 -11 11 -23 82 -17 105 8 33 16 27 8 -8z m-1050 -55
c-12 -44 -14 -46 -14 -17 -1 26 18 77 25 69 1 -1 -4 -24 -11 -52z m1635 51 c0
-3 -4 -8 -10 -11 -5 -3 -10 -1 -10 4 0 6 5 11 10 11 6 0 10 -2 10 -4z m197
-12 c-3 -3 -12 -4 -19 -1 -8 3 -5 6 6 6 11 1 17 -2 13 -5z m-794 -63 c3 -15 1
-18 -11 -14 -11 5 -14 2 -10 -8 3 -8 2 -23 -3 -34 -7 -19 -8 -19 -8 1 -1 34
11 84 19 79 4 -3 10 -13 13 -24z m-1026 -43 c-2 -13 -4 -3 -4 22 0 25 2 35 4
23 2 -13 2 -33 0 -45z m1793 17 c0 -16 -6 -25 -15 -25 -18 0 -19 16 -2 35 16
19 17 19 17 -10z m-1623 -27 c-3 -7 -5 -2 -5 12 0 14 2 19 5 13 2 -7 2 -19 0
-25z m434 -13 c5 4 9 -3 9 -14 0 -12 -5 -21 -10 -21 -6 0 -8 -17 -5 -42 4 -29
3 -37 -3 -23 -5 11 -9 49 -9 85 0 36 1 53 4 37 2 -15 9 -25 14 -22z m16 23
c-3 -8 -6 -5 -6 6 -1 11 2 17 5 13 3 -3 4 -12 1 -19z m979 -10 c-3 -18 -8 -55
-11 -81 -10 -77 -18 -47 -10 37 4 42 12 76 17 76 5 0 7 -15 4 -32z m-1404 -65
c3 -41 0 -63 -7 -63 -6 0 -10 17 -8 43 2 38 1 39 -6 12 -5 -18 -9 -23 -10 -11
-1 21 22 104 25 90 2 -5 4 -37 6 -71z m841 37 c-3 -11 -9 -20 -14 -20 -11 0
-11 3 -3 24 9 23 23 20 17 -4z m-1043 -25 c0 -19 -4 -35 -10 -35 -5 0 -10 16
-10 35 0 19 5 35 10 35 6 0 10 -16 10 -35z m1777 -17 c-3 -8 -6 -5 -6 6 -1 11
2 17 5 13 3 -3 4 -12 1 -19z m20 0 c-3 -8 -6 -5 -6 6 -1 11 2 17 5 13 3 -3 4
-12 1 -19z m20 -60 c-2 -18 -4 -6 -4 27 0 33 2 48 4 33 2 -15 2 -42 0 -60z
m-1229 -7 c14 -45 14 -78 1 -106 -7 -15 -8 -9 -4 23 6 51 -3 101 -16 80 -6 -9
-9 -5 -9 15 0 39 15 33 28 -12z m1209 -62 c11 -133 10 -569 -2 -571 -6 -2 -11
84 -13 240 -1 133 -6 242 -11 242 -5 0 -3 19 4 43 7 25 11 65 8 93 -3 27 -3
46 0 43 4 -3 10 -43 14 -90z m-1605 -94 c-4 -117 -2 -155 7 -155 7 0 9 -5 5
-11 -15 -24 -24 19 -24 116 0 89 9 205 15 205 1 0 0 -70 -3 -155z m1418 134
c0 -11 -4 -18 -10 -14 -5 3 -7 12 -3 20 7 21 13 19 13 -6z m-1030 -34 c0 -8
-4 -15 -10 -15 -5 0 -10 7 -10 15 0 8 5 15 10 15 6 0 10 -7 10 -15z m1237 -37
c-3 -8 -6 -5 -6 6 -1 11 2 17 5 13 3 -3 4 -12 1 -19z m-1610 -30 c-3 -8 -6 -5
-6 6 -1 11 2 17 5 13 3 -3 4 -12 1 -19z m1423 0 c0 -6 -6 -5 -15 2 -8 7 -15
14 -15 16 0 2 7 1 15 -2 8 -4 15 -11 15 -16z m-1423 -80 c-2 -13 -4 -5 -4 17
-1 22 1 32 4 23 2 -10 2 -28 0 -40z m274 12 c-4 -20 -10 -30 -14 -23 -4 6 -2
23 4 37 16 34 19 29 10 -14z m96 -7 c-3 -10 -5 -2 -5 17 0 19 2 27 5 18 2 -10
2 -26 0 -35z m408 -20 c-9 -50 -17 -34 -9 18 4 24 9 38 12 31 2 -7 1 -29 -3
-49z m-485 -17 c0 -3 -4 -8 -10 -11 -5 -3 -10 -1 -10 4 0 6 5 11 10 11 6 0 10
-2 10 -4z m30 -37 c0 -25 -4 -38 -10 -34 -12 7 -10 75 2 75 4 0 8 -18 8 -41z
m461 -17 c-6 -2 -11 -13 -11 -24 0 -12 -3 -18 -6 -15 -4 4 -1 28 7 54 13 44
14 46 17 18 2 -16 -1 -31 -7 -33z m619 -31 c0 -18 -3 -19 -32 -8 l-33 11 30 7
c17 4 31 7 33 8 1 0 2 -8 2 -18z m-1430 -33 c0 -18 -2 -20 -9 -8 -6 8 -7 18
-5 22 9 14 14 9 14 -14z m335 2 c-3 -5 -1 -11 5 -15 17 -10 1 -25 -27 -25 -25
0 -25 1 -10 18 19 21 22 37 5 26 -7 -4 -8 -3 -4 4 4 6 13 9 21 6 8 -4 13 -10
10 -14z m-318 -27 c-3 -10 -5 -4 -5 12 0 17 2 24 5 18 2 -7 2 -21 0 -30z
m1401 -20 c2 -20 5 -39 7 -43 2 -3 0 -12 -6 -20 -6 -11 -9 -8 -9 13 0 16 -5
37 -10 48 -6 11 -8 24 -5 29 12 20 21 9 23 -27z m-1188 19 c0 -10 -57 -9 -67
1 -3 4 10 7 30 7 21 0 37 -4 37 -8z m220 -2 c0 -5 -4 -10 -10 -10 -5 0 -10 5
-10 10 0 6 5 10 10 10 6 0 10 -4 10 -10z m-33 -6 c-3 -3 -12 -4 -19 -1 -8 3
-5 6 6 6 11 1 17 -2 13 -5z m50 -16 c-3 -8 -6 -5 -6 6 -1 11 2 17 5 13 3 -3 4
-12 1 -19z m207 7 c-4 -8 -7 -15 -9 -15 -2 0 -5 7 -9 15 -3 9 0 15 9 15 9 0
12 -6 9 -15z m129 -29 c-3 -4 -9 -2 -14 5 -13 22 -11 31 5 17 8 -7 12 -17 9
-22z m584 -38 c-3 -7 -5 -2 -5 12 0 14 2 19 5 13 2 -7 2 -19 0 -25z m-541 13
c-4 -5 0 -12 6 -14 7 -3 -5 -5 -27 -5 -22 0 -34 2 -26 5 11 5 11 7 0 14 -10 6
-3 9 19 9 18 0 31 -4 28 -9z m193 -11 c11 -6 10 -8 -3 -13 -8 -3 -18 -2 -21 3
-4 6 -25 11 -48 11 -23 1 -55 5 -72 10 -19 5 0 6 50 3 44 -4 86 -9 94 -14z
m-136 -7 c-7 -2 -19 -2 -25 0 -7 3 -2 5 12 5 14 0 19 -2 13 -5z m280 0 c-13
-2 -35 -2 -50 0 -16 2 -5 4 22 4 28 0 40 -2 28 -4z m114 1 c-3 -3 -12 -4 -19
-1 -8 3 -5 6 6 6 11 1 17 -2 13 -5z m28 -32 c-3 -3 -11 0 -18 7 -9 10 -8 11 6
5 10 -3 15 -9 12 -12z m75 4 c0 -2 -9 -6 -20 -9 -11 -3 -18 -1 -14 4 5 9 34
13 34 5z m-1507 -63 c-13 -2 -33 -2 -45 0 -13 2 -3 4 22 4 25 0 35 -2 23 -4z
m10 -20 c-7 -2 -19 -2 -25 0 -7 3 -2 5 12 5 14 0 19 -2 13 -5z m514 -59 c-3
-3 -12 -4 -19 -1 -8 3 -5 6 6 6 11 1 17 -2 13 -5z m305 -5 c-9 -4 -51 -7 -92
-7 -41 -1 -111 -3 -155 -5 -44 -2 -61 -2 -37 0 23 2 41 7 38 11 -2 4 56 7 129
7 74 0 126 -3 117 -6z m68 -9 c0 -5 -9 -10 -20 -10 -11 0 -20 5 -20 10 0 6 9
10 20 10 11 0 20 -4 20 -10z m-137 -17 c-23 -2 -64 -2 -90 0 -26 2 -7 3 42 3
50 0 71 -1 48 -3z m711 -2 c3 -5 -6 -8 -19 -8 -14 0 -25 3 -25 8 0 5 9 9 19 9
11 0 22 -4 25 -9z m-947 -17 c-3 -3 -12 -4 -19 -1 -8 3 -5 6 6 6 11 1 17 -2
13 -5z m-422 -14 c-3 -5 -13 -10 -21 -10 -8 0 -14 5 -14 10 0 6 9 10 21 10 11
0 17 -4 14 -10z m1044 -18 c-24 -4 -15 -22 12 -22 10 0 19 -5 19 -10 0 -10
-34 -5 -75 11 -18 7 -18 8 -2 8 10 1 15 6 12 11 -3 6 1 10 9 10 9 0 16 5 16
10 0 6 6 5 14 -2 12 -11 11 -13 -5 -16z m351 20 c0 -4 -9 -8 -19 -8 -11 0 -17
4 -15 8 3 4 12 8 20 8 8 0 14 -4 14 -8z m-1120 -22 c8 -5 11 -10 5 -10 -5 0
-17 5 -25 10 -8 5 -10 10 -5 10 6 0 17 -5 25 -10z m820 -1 c0 -8 4 -8 14 0 12
10 13 8 9 -8 -7 -26 -6 -26 -28 -1 -10 11 -13 20 -7 20 7 0 12 -5 12 -11z
m-854 -10 c8 -13 -4 -24 -35 -34 -16 -5 -21 -4 -17 4 4 6 16 11 27 11 11 0 17
5 14 10 -3 6 -17 7 -31 4 -14 -4 -24 -2 -24 5 0 14 57 14 66 0z m-78 -39 c-2
-22 -12 -37 -40 -56 -21 -15 -38 -33 -38 -40 0 -17 -16 -18 -26 -2 -4 7 -3 8
4 4 8 -5 12 3 12 26 0 24 3 29 10 18 8 -12 14 -10 40 15 16 16 30 37 30 47 0
10 2 18 5 18 3 0 4 -14 3 -30z m1286 -10 c-6 -6 -10 -3 -10 10 0 13 4 16 10
10 7 -7 7 -13 0 -20z m-341 -4 c4 -10 1 -13 -9 -9 -15 6 -19 23 -5 23 5 0 11
-7 14 -14z m-1033 -10 c0 -3 -4 -8 -10 -11 -5 -3 -10 -1 -10 4 0 6 5 11 10 11
6 0 10 -2 10 -4z m37 -2 c-3 -3 -12 -4 -19 -1 -8 3 -5 6 6 6 11 1 17 -2 13 -5z
m1383 -60 c0 -2 -9 0 -20 6 -12 7 -20 21 -20 38 l0 27 20 -33 c11 -18 20 -35
20 -38z m-216 -17 c48 7 76 -23 74 -77 -1 -23 -4 -36 -8 -30 -4 6 -5 22 -3 35
6 28 -27 65 -58 65 -11 0 -17 -4 -14 -10 3 -5 13 -10 21 -10 8 0 14 -4 14 -10
0 -5 -4 -10 -9 -10 -15 0 -61 41 -60 53 0 9 2 9 5 0 3 -7 18 -10 38 -6z
m-1272 -29 c-9 -9 -12 -7 -12 12 0 19 3 21 12 12 9 -9 9 -15 0 -24z m42 24 c7
-12 -49 -116 -65 -120 -9 -3 -8 2 4 16 9 10 17 26 17 34 0 9 5 18 11 20 6 2
12 16 12 31 2 26 11 35 21 19z m1448 -17 c-2 -14 -8 -25 -13 -25 -5 0 -9 11
-9 25 0 14 6 25 14 25 9 0 12 -8 8 -25z m57 -61 c6 -20 6 -34 0 -34 -5 0 -9 8
-9 19 0 10 -7 32 -15 47 -8 16 -15 36 -15 44 0 20 27 -32 39 -76z m-1768 25
l-10 -24 0 26 c-1 14 2 29 6 33 12 12 14 -9 4 -35z m1684 -9 c3 -5 1 -10 -4
-10 -6 0 -11 5 -11 10 0 6 2 10 4 10 3 0 8 -4 11 -10z m52 -47 c-3 -10 -5 -2
-5 17 0 19 2 27 5 18 2 -10 2 -26 0 -35z m-1714 -28 c-3 -9 -8 -14 -10 -11 -3
3 -2 9 2 15 9 16 15 13 8 -4z m1787 5 c0 -5 -4 -10 -10 -10 -5 0 -10 5 -10 10
0 6 5 10 10 10 6 0 10 -4 10 -10z m-45 -10 c3 -5 1 -10 -4 -10 -6 0 -11 5 -11
10 0 6 2 10 4 10 3 0 8 -4 11 -10z m-127 -23 c4 7 8 -5 8 -28 l1 -39 -18 35
c-20 37 -26 61 -9 35 7 -11 12 -12 18 -3z m-1671 -49 c-3 -8 -6 -5 -6 6 -1 11
2 17 5 13 3 -3 4 -12 1 -19z m189 -143 c3 -101 2 -115 -13 -115 -13 0 -15 8
-9 53 3 28 6 83 6 121 0 112 13 66 16 -59z m21 78 c-3 -10 -5 -4 -5 12 0 17 2
24 5 18 2 -7 2 -21 0 -30z m1678 -43 c2 -40 -8 -53 -19 -24 -8 21 -8 59 1 67
11 11 16 0 18 -43z m-128 -50 c-6 -69 -17 -93 -28 -64 -11 28 -10 93 2 115 18
34 30 10 26 -51z m-37 56 c0 -3 -4 -8 -10 -11 -5 -3 -10 -1 -10 4 0 6 5 11 10
11 6 0 10 -2 10 -4z m130 -16 c0 -11 -7 -20 -15 -20 -8 0 -15 9 -15 20 0 11 7
20 15 20 8 0 15 -9 15 -20z m-1643 -32 c-3 -7 -5 -2 -5 12 0 14 2 19 5 13 2
-7 2 -19 0 -25z m1570 -15 c-3 -10 -5 -4 -5 12 0 17 2 24 5 18 2 -7 2 -21 0
-30z m-2 -80 c-2 -10 -4 -20 -4 -22 -1 -3 -7 1 -13 7 -10 10 -10 15 2 22 19
12 19 13 15 -7z m-12 -69 c-9 -24 -33 -2 -33 30 l0 31 19 -24 c10 -14 17 -30
14 -37z m94 -6 c-2 -13 -4 -3 -4 22 0 25 2 35 4 23 2 -13 2 -33 0 -45z m-107
-143 c5 -24 4 -32 -7 -32 -10 0 -12 8 -7 30 4 20 3 27 -5 23 -7 -5 -11 3 -11
21 1 25 2 26 12 9 6 -11 14 -34 18 -51z m-1492 9 c-3 -27 -4 -26 -9 8 -3 22
-1 34 4 29 5 -5 7 -21 5 -37z m-218 -54 c0 -5 -2 -10 -4 -10 -3 0 -8 5 -11 10
-3 6 -1 10 4 10 6 0 11 -4 11 -10z m30 -5 c0 -8 -4 -15 -9 -15 -6 0 -11 -15
-13 -32 -3 -26 -6 -29 -12 -16 -5 10 -2 30 5 48 15 32 29 40 29 15z m458 -15
c-7 -11 -16 -20 -20 -20 -5 0 -3 9 4 20 7 11 16 20 20 20 5 0 3 -9 -4 -20z
m-254 -49 c-7 -9 -24 13 -24 32 0 21 1 21 13 -3 8 -14 12 -27 11 -29z m1606
19 c0 -11 -4 -20 -10 -20 -5 0 -10 9 -10 20 0 11 5 20 10 20 6 0 10 -9 10 -20z
m-1804 -41 c-4 -25 -2 -46 4 -54 6 -7 7 -16 2 -19 -4 -3 -14 11 -22 32 -9 26
-10 37 -1 40 6 2 11 12 11 23 0 10 3 19 6 19 4 0 4 -19 0 -41z m182 -28 c-15
-5 -19 4 -11 24 6 18 7 18 13 -1 4 -10 3 -21 -2 -23z m1419 -3 c-3 -7 -5 -2
-5 12 0 14 2 19 5 13 2 -7 2 -19 0 -25z m-1122 -8 c3 -5 1 -10 -4 -10 -6 0
-11 5 -11 10 0 6 2 10 4 10 3 0 8 -4 11 -10z m-250 -10 c3 -5 -1 -10 -9 -10
-9 0 -16 5 -16 10 0 6 4 10 9 10 6 0 13 -4 16 -10z m1365 -30 c5 -19 6 -29 1
-24 -10 10 -26 72 -17 63 4 -4 11 -21 16 -39z m-1315 12 c-3 -3 -11 0 -18 7
-9 10 -8 11 6 5 10 -3 15 -9 12 -12z m195 4 c0 -2 -7 -7 -16 -10 -8 -3 -12 -2
-9 4 6 10 25 14 25 6z m1308 -51 c0 -16 -2 -15 -8 5 -11 34 -11 60 0 35 5 -11
8 -29 8 -40z m27 34 c4 -11 4 -23 1 -26 -3 -4 -6 1 -6 10 0 10 -4 17 -10 17
-5 0 -10 5 -10 10 0 18 19 10 25 -11z m-1565 -8 c0 7 3 10 6 6 3 -3 1 -14 -5
-24 -6 -11 -11 -13 -11 -5 0 7 -4 11 -9 7 -6 -3 -15 5 -22 17 -12 22 -12 22
15 5 17 -12 26 -13 26 -6z m1330 -27 c0 -8 -4 -12 -10 -9 -5 3 -10 13 -10 21
0 8 5 12 10 9 6 -3 10 -13 10 -21z m-1051 -10 c6 -15 10 -29 7 -31 -2 -2 -7 5
-11 16 -3 12 -10 19 -15 16 -9 -5 -2 -43 10 -60 11 -14 16 -68 8 -80 -11 -18
8 -38 30 -33 17 5 22 -1 31 -35 5 -23 8 -43 5 -46 -2 -2 -4 2 -4 10 0 12 -2
11 -11 -1 -8 -12 -10 -10 -8 10 3 49 1 54 -18 39 -13 -11 -17 -11 -20 -1 -3 6
-9 12 -14 12 -6 0 -7 -4 -4 -10 3 -6 -1 -10 -9 -10 -9 0 -16 7 -16 15 0 8 4
15 9 15 13 0 20 74 8 82 -6 3 -10 23 -9 43 1 24 -2 34 -10 29 -6 -4 -9 -3 -6
2 3 5 8 17 11 27 9 24 22 21 36 -9z m-209 -6 c0 -13 -23 -5 -28 10 -2 7 2 10
12 6 9 -3 16 -11 16 -16z m-40 2 c0 -5 -7 -10 -16 -10 -8 0 -12 5 -9 10 3 6
10 10 16 10 5 0 9 -4 9 -10z m1330 0 c0 -5 -5 -10 -11 -10 -5 0 -7 5 -4 10 3
6 8 10 11 10 2 0 4 -4 4 -10z m191 -13 c-10 -9 -11 -8 -5 6 3 10 9 15 12 12 3
-3 0 -11 -7 -18z m-1731 -33 c0 -3 -7 -1 -15 6 -8 7 -15 17 -15 22 0 5 7 3 15
-6 8 -8 15 -18 15 -22z m70 32 c0 -2 -3 -11 -6 -20 -5 -12 -9 -13 -24 -4 -10
7 -16 16 -14 20 5 8 44 11 44 4z m1380 -45 c0 -5 -7 -14 -15 -21 -16 -14 -18
-10 -9 14 6 17 24 22 24 7z m-1423 -44 c2 -19 2 -19 -12 -1 -8 11 -15 25 -15
32 0 21 26 -8 27 -31z m1453 23 c0 -5 -7 -10 -16 -10 -8 0 -12 5 -9 10 3 6 10
10 16 10 5 0 9 -4 9 -10z m-1386 -27 c4 -9 3 -20 -2 -25 -6 -6 -11 1 -14 16
-6 29 6 35 16 9z m1514 -88 c-3 -31 -25 -41 -33 -15 -8 24 1 40 20 40 10 0 14
-9 13 -25z m48 -3 c-18 -16 -18 -16 -6 6 6 13 14 21 18 18 3 -4 -2 -14 -12
-24z m-85 -65 c-4 -11 -13 -23 -19 -25 -14 -4 -16 14 -3 22 5 3 7 16 3 29 -5
19 -3 20 11 9 11 -9 13 -20 8 -35z m-1416 3 c3 -5 1 -10 -4 -10 -6 0 -11 5
-11 10 0 6 2 10 4 10 3 0 8 -4 11 -10z m25 -30 c0 -5 -2 -10 -4 -10 -3 0 -8 5
-11 10 -3 6 -1 10 4 10 6 0 11 -4 11 -10z"/>
<path d="M4050 6200 l-25 -6 22 -12 c12 -7 35 -13 50 -14 15 -1 33 -9 40 -18
6 -8 15 -12 18 -8 4 4 0 14 -9 23 -9 9 -16 20 -16 25 0 11 -50 17 -80 10z m53
-17 c-7 -2 -21 -2 -30 0 -10 3 -4 5 12 5 17 0 24 -2 18 -5z"/>
<path d="M4173 6192 c-20 -3 -20 -5 -7 -21 12 -14 25 -16 64 -11 27 3 48 4 48
1 -2 -20 4 -30 20 -34 9 -3 4 -5 -13 -5 -16 0 -39 4 -50 9 -17 8 -15 8 8 4 15
-3 27 -1 27 5 0 5 -10 9 -22 9 -33 -2 -86 -16 -65 -18 10 0 36 -10 58 -21 23
-12 50 -19 62 -16 12 3 16 3 8 0 -12 -6 195 -114 218 -114 5 0 11 -4 13 -8 2
-4 32 -26 68 -47 63 -39 88 -44 101 -23 4 6 13 7 20 3 9 -6 6 -11 -10 -17 -14
-5 -19 -12 -15 -20 6 -9 9 -9 12 0 6 18 23 14 20 -4 -2 -12 6 -17 26 -20 15
-1 36 -10 45 -18 10 -9 22 -16 27 -16 15 0 77 -67 67 -71 -6 -2 30 -42 78 -89
48 -47 85 -81 82 -76 -4 5 -1 6 6 2 7 -5 10 -14 7 -22 -3 -8 -2 -14 2 -14 4 0
18 -17 32 -37 14 -20 39 -50 55 -66 17 -16 24 -26 18 -23 -9 5 -11 2 -7 -9 5
-12 10 -13 17 -6 18 18 28 12 15 -8 -10 -16 -8 -26 15 -58 14 -21 34 -56 43
-78 15 -36 17 -38 24 -19 5 12 4 39 -2 60 -5 22 -9 48 -9 59 1 33 -40 135 -52
128 -6 -4 -8 0 -4 11 4 9 3 15 -2 12 -11 -7 -27 12 -41 48 -9 26 -9 27 5 16
22 -18 19 4 -4 24 -15 13 -20 14 -25 4 -3 -7 -3 -3 0 9 3 15 -1 23 -15 28 -11
3 -18 12 -15 19 5 14 -197 228 -213 225 -21 -4 -33 2 -33 15 0 20 -121 97
-141 91 -9 -3 -28 -1 -43 5 -16 6 -25 6 -21 1 3 -6 -3 -14 -12 -20 -16 -9 -16
-12 -3 -21 12 -8 12 -10 1 -10 -11 0 -11 -3 -1 -15 18 -22 -1 -18 -30 6 -24
20 -24 20 -2 14 29 -8 28 3 -2 15 -22 8 -41 52 -28 65 3 3 6 14 7 24 1 16 -17
27 -84 54 -139 55 -149 57 -165 41 -19 -18 -32 -18 -17 0 16 20 1 28 -58 31
-25 1 -47 4 -48 5 -2 1 -6 3 -10 4 -5 1 -12 4 -18 7 -5 3 -20 3 -32 1z m150
-39 c-7 -2 -19 -2 -25 0 -7 3 -2 5 12 5 14 0 19 -2 13 -5z m140 -35 c12 -7 24
-15 27 -18 3 -3 25 -12 50 -20 26 -9 37 -16 27 -18 -18 -4 -24 -32 -7 -32 6 0
10 -4 10 -10 0 -5 -9 -10 -19 -10 -14 0 -19 6 -16 20 2 11 6 24 9 29 3 4 -12
13 -33 19 -21 7 -48 21 -61 32 -26 23 -21 26 13 8z m-108 -8 c3 -6 -1 -7 -9
-4 -18 7 -21 14 -7 14 6 0 13 -4 16 -10z m44 -19 c7 -5 9 -11 5 -14 -5 -3 -15
1 -22 9 -14 16 -5 18 17 5z m96 -29 c-3 -3 3 -11 13 -19 9 -8 12 -12 5 -9 -6
4 -14 2 -18 -4 -3 -5 -1 -10 6 -10 7 0 10 -2 7 -5 -10 -11 -37 7 -31 21 3 8
-1 14 -8 14 -11 0 -11 3 1 11 12 8 9 9 -12 7 -15 -2 -27 0 -28 5 0 4 0 11 0
16 0 5 16 1 35 -7 19 -9 32 -18 30 -20z m-138 22 c-3 -3 -12 -4 -19 -1 -8 3
-5 6 6 6 11 1 17 -2 13 -5z m93 -44 c0 -5 -4 -10 -9 -10 -6 0 -13 5 -16 10 -3
6 1 10 9 10 9 0 16 -4 16 -10z m137 4 c-3 -3 -12 -4 -19 -1 -8 3 -5 6 6 6 11
1 17 -2 13 -5z m10 -90 c-7 -7 -37 7 -37 17 0 6 9 5 21 -1 11 -7 19 -14 16
-16z m130 -1 c-4 -3 -2 -12 4 -20 9 -10 6 -13 -15 -13 -14 0 -26 2 -26 5 0 10
25 34 34 35 5 0 6 -3 3 -7z m61 -11 c-25 -5 -22 -19 4 -25 12 -4 19 -9 16 -12
-5 -5 -42 8 -57 21 -9 8 26 31 39 26 12 -5 12 -7 -2 -10z m52 -22 c0 -5 -7 -7
-15 -4 -8 4 -15 8 -15 10 0 2 7 4 15 4 8 0 15 -4 15 -10z m-29 -34 c19 -2 40
-4 47 -5 6 0 12 -6 12 -12 0 -5 -4 -8 -9 -4 -5 3 -11 -1 -13 -9 -2 -12 -10
-12 -43 4 -22 11 -45 19 -52 20 -7 0 -10 7 -7 15 5 11 10 13 19 5 6 -5 27 -12
46 -14z m143 -65 c-3 -3 -15 6 -27 18 l-22 24 27 -19 c14 -10 24 -21 22 -23z
m-68 4 c-3 -8 -2 -15 3 -15 5 0 11 -10 14 -22 6 -21 5 -21 -17 3 -16 17 -19
27 -12 36 15 17 19 16 12 -2z m34 -5 c0 -5 -4 -10 -10 -10 -5 0 -10 5 -10 10
0 6 5 10 10 10 6 0 10 -4 10 -10z m30 -30 c0 -13 -11 -13 -30 0 -12 8 -11 10
8 10 12 0 22 -4 22 -10z m63 -17 c-20 -7 -15 -26 5 -19 11 4 9 0 -5 -10 -13
-9 -23 -24 -23 -32 0 -13 -2 -13 -13 2 -12 16 -10 22 7 42 12 13 26 23 31 23
6 0 4 -3 -2 -6z m-46 -80 c-8 -7 -47 29 -41 38 3 5 14 -1 25 -12 11 -11 18
-23 16 -26z m78 10 c-2 -10 -4 -19 -4 -21 -1 -1 -11 3 -23 10 l-23 12 25 7
c14 4 26 7 27 8 1 1 0 -7 -2 -16z m39 -9 c3 -8 2 -12 -4 -9 -6 3 -10 10 -10
16 0 14 7 11 14 -7z m-74 -30 c0 -16 -16 -19 -25 -4 -8 13 4 32 16 25 5 -4 9
-13 9 -21z m70 -8 c0 -7 14 -25 30 -41 22 -21 27 -31 18 -37 -19 -12 -28 -10
-28 6 0 22 -19 30 -35 16 -18 -15 -19 -6 -2 20 10 17 9 22 -3 30 -11 7 -11 10
-2 10 7 0 10 5 6 12 -4 7 -3 8 4 4 7 -4 12 -13 12 -20z m-39 -19 c-1 -12 -15
-9 -19 4 -3 6 1 10 8 8 6 -3 11 -8 11 -12z m119 -74 c-1 -10 -6 -28 -13 -41
l-13 -23 -24 26 c-14 15 -18 25 -10 25 7 0 19 -8 26 -17 12 -17 13 -17 14 -1
0 9 -5 20 -11 24 -8 4 -7 9 2 15 21 13 29 11 29 -8z m20 -43 c9 -17 8 -20 -9
-20 -14 0 -18 5 -14 20 3 11 7 20 9 20 2 0 8 -9 14 -20z m12 -39 c13 -2 29
-41 22 -53 -5 -7 -10 -4 -15 10 -5 12 -20 27 -34 32 -14 5 -25 11 -25 13 0 4
28 3 52 -2z m77 -116 c-1 -16 -3 -14 -13 8 l-13 29 -11 -34 -12 -33 7 35 c3
19 6 49 6 65 0 30 0 30 18 -10 10 -22 18 -49 18 -60z m-10 -45 c0 -10 -3 -8
-9 5 -12 27 -12 43 0 25 5 -8 9 -22 9 -30z m18 -52 c-3 -7 -5 -2 -5 12 0 14 2
19 5 13 2 -7 2 -19 0 -25z"/>
<path d="M4622 6048 c3 -7 15 -16 29 -20 19 -6 17 -7 -8 -3 -18 2 -33 1 -33
-4 0 -12 45 -22 64 -15 9 3 23 1 31 -6 8 -6 20 -10 27 -7 7 2 -16 18 -51 36
-35 18 -61 27 -59 19z"/>
<path d="M5340 6041 c0 -12 29 -35 36 -28 11 10 -5 37 -21 37 -8 0 -15 -4 -15
-9z"/>
<path d="M4620 5980 c0 -5 6 -10 14 -10 8 0 18 5 21 10 3 6 -3 10 -14 10 -12
0 -21 -4 -21 -10z"/>
<path d="M4818 5789 c44 -32 67 -37 32 -6 -11 9 -20 14 -20 11 0 -3 -7 2 -16
10 -8 9 -20 16 -27 16 -6 0 8 -14 31 -31z"/>
<path d="M4135 5675 c-16 -7 -33 -11 -37 -8 -5 2 -8 0 -8 -5 0 -5 44 -22 98
-37 53 -15 103 -32 110 -37 8 -7 12 -7 12 2 0 7 -8 19 -17 26 -15 11 -15 13
-3 13 8 0 24 -6 34 -14 15 -12 17 -18 8 -27 -9 -9 -1 -17 36 -36 26 -13 56
-26 66 -28 20 -4 46 -24 31 -24 -4 0 12 -14 36 -32 24 -17 48 -37 52 -45 4 -7
13 -13 18 -13 6 0 -6 17 -25 37 -19 21 -32 40 -29 43 3 3 8 -1 10 -7 3 -7 9
-13 15 -13 6 0 17 -8 24 -17 10 -13 13 -14 14 -4 0 7 -10 22 -22 32 l-21 19
26 0 c15 0 29 0 32 0 3 0 4 -3 3 -7 -2 -5 -5 -7 -8 -6 -14 4 -4 -97 11 -109 8
-7 28 -32 43 -55 16 -24 33 -43 37 -43 5 0 9 -7 9 -16 0 -9 5 -12 12 -8 7 5 8
3 3 -5 -4 -7 1 -22 12 -34 10 -12 34 -52 53 -89 19 -37 38 -68 43 -68 12 0 8
16 -11 41 -10 13 -29 47 -42 74 -14 28 -29 53 -34 56 -5 4 -6 11 -3 16 6 10
-38 63 -52 63 -5 0 -14 12 -19 28 -5 15 -13 35 -18 46 -5 14 -3 17 7 14 8 -3
14 -9 14 -14 2 -23 18 -54 28 -54 7 0 18 -9 25 -20 7 -12 17 -18 22 -15 6 4 8
10 5 15 -3 5 -1 11 4 14 5 4 13 -3 16 -15 6 -17 9 -19 17 -8 6 9 7 1 3 -26 -3
-23 0 -47 6 -55 8 -12 10 -9 6 13 -2 15 -1 30 3 32 13 8 18 -59 6 -68 -8 -6
-8 -10 2 -14 6 -2 12 -10 12 -16 -1 -7 -10 -1 -21 12 -33 40 -32 17 3 -40 18
-30 34 -56 35 -58 2 -2 6 -1 10 3 4 4 3 10 -3 14 -17 11 -23 50 -13 85 5 20 5
35 -1 41 -6 6 -10 17 -10 26 0 38 -112 230 -135 230 -4 0 -2 -7 5 -15 7 -9 10
-18 7 -21 -3 -3 -16 14 -28 38 -19 38 -58 78 -67 69 -2 -1 -16 8 -30 22 -29
26 -103 67 -124 67 -6 0 -3 -7 8 -15 10 -8 14 -15 7 -15 -6 0 -21 12 -32 26
-13 17 -26 24 -37 20 -13 -5 -14 -9 -4 -21 9 -10 9 -15 1 -15 -6 0 -11 5 -11
11 0 6 -7 9 -15 5 -10 -4 -14 1 -12 17 2 18 -4 23 -43 29 -69 10 -132 8 -165
-7z m88 -2 c-29 -2 -53 -8 -53 -12 0 -10 96 -7 128 3 13 4 22 3 22 -3 0 -5
-12 -11 -27 -13 -19 -2 -28 -8 -27 -20 1 -10 -1 -16 -5 -14 -3 1 -15 6 -26 11
l-20 7 20 9 c15 7 11 8 -17 5 -41 -5 -78 2 -78 14 0 12 28 18 85 17 l50 -1
-52 -3z m272 -73 c3 -6 -1 -7 -9 -4 -18 7 -21 14 -7 14 6 0 13 -4 16 -10z
m-32 -15 c8 -8 18 -11 21 -7 4 3 4 -2 0 -11 -7 -19 -29 -18 -29 2 0 6 -7 16
-15 21 -9 6 -10 10 -3 10 6 0 18 -7 26 -15z m77 -15 c0 -22 25 -44 43 -37 7 2
23 -4 36 -14 13 -11 20 -19 15 -19 -4 0 -16 7 -26 17 -11 9 -18 11 -18 5 0
-22 -39 -12 -56 13 -9 14 -14 28 -10 32 3 3 1 12 -6 20 -8 11 -7 12 6 7 9 -3
16 -14 16 -24z m-160 0 c18 -12 2 -12 -25 0 -13 6 -15 9 -5 9 8 0 22 -4 30 -9z
m48 -28 c2 -7 -2 -10 -12 -6 -9 3 -16 11 -16 16 0 13 23 5 28 -10z m246 -134
c-11 -17 -24 -6 -24 19 0 26 1 26 14 8 8 -11 12 -23 10 -27z m71 -44 c14 -13
25 -29 25 -36 -1 -7 -6 -3 -13 10 -7 12 -16 19 -20 16 -11 -11 -36 28 -36 56
l0 25 10 -24 c5 -13 21 -35 34 -47z m-48 -21 c-11 -10 -27 8 -27 30 l0 21 16
-22 c9 -13 14 -26 11 -29z"/>
<path d="M5200 5541 c0 -6 4 -13 10 -16 6 -3 7 1 4 9 -7 18 -14 21 -14 7z"/>
<path d="M3628 5438 c5 -5 16 -8 23 -6 8 3 3 7 -10 11 -17 4 -21 3 -13 -5z"/>
<path d="M4741 5273 c1 -10 5 -29 9 -43 7 -22 8 -20 7 13 0 21 -4 40 -9 43 -4
3 -8 -3 -7 -13z"/>
<path d="M5720 5225 c0 -8 5 -15 10 -15 6 0 10 7 10 15 0 8 -4 15 -10 15 -5 0
-10 -7 -10 -15z"/>
<path d="M2130 5220 c0 -5 5 -10 10 -10 6 0 10 5 10 10 0 6 -4 10 -10 10 -5 0
-10 -4 -10 -10z"/>
<path d="M4826 5137 c3 -10 9 -15 12 -12 3 3 0 11 -7 18 -10 9 -11 8 -5 -6z"/>
<path d="M3010 5040 c0 -5 5 -10 10 -10 6 0 10 5 10 10 0 6 -4 10 -10 10 -5 0
-10 -4 -10 -10z"/>
<path d="M4542 4665 c0 -16 2 -22 5 -12 2 9 2 23 0 30 -3 6 -5 -1 -5 -18z"/>
<path d="M5742 4290 c0 -19 2 -27 5 -17 2 9 2 25 0 35 -3 9 -5 1 -5 -18z"/>
<path d="M4800 3049 c0 -5 5 -7 10 -4 6 3 10 8 10 11 0 2 -4 4 -10 4 -5 0 -10
-5 -10 -11z"/>
<path d="M3427 2663 c-4 -3 -8 -25 -8 -47 -1 -39 -2 -40 -9 -11 -7 29 -8 29
-10 5 -4 -33 -4 -39 4 -75 l7 -30 -15 30 -14 30 -1 -32 c-1 -30 14 -52 26 -39
6 6 33 169 28 174 -1 1 -5 -1 -8 -5z"/>
<path d="M3834 2613 c-12 -27 -13 -42 -5 -59 6 -15 7 -25 1 -29 -6 -4 -10 2
-10 12 0 15 -2 16 -10 3 -5 -8 -9 -24 -9 -35 0 -11 3 -14 6 -7 4 10 8 10 19 1
11 -9 14 -8 15 7 0 11 2 26 4 34 26 109 20 147 -11 73z"/>
<path d="M3356 2484 c-8 -21 -8 -26 2 -21 4 3 7 -9 7 -25 0 -42 20 -46 33 -8
9 24 8 30 -4 30 -7 0 -14 6 -14 14 0 22 -17 28 -24 10z m31 -56 c-3 -8 -6 -5
-6 6 -1 11 2 17 5 13 3 -3 4 -12 1 -19z"/>
<path d="M3569 2483 c-8 -9 -14 -23 -14 -32 -1 -24 -22 -57 -31 -48 -5 5 -2
12 5 16 7 5 12 14 9 21 -2 8 -9 5 -20 -7 -16 -18 -16 -20 8 -48 19 -23 24 -25
20 -10 -6 19 -5 19 8 2 9 -12 16 -14 21 -8 3 6 11 11 17 11 6 0 3 -9 -7 -20
-10 -11 -15 -23 -11 -27 3 -4 14 4 23 17 9 12 26 32 39 43 18 16 21 23 11 38
-6 10 -14 16 -18 13 -4 -2 -12 10 -18 26 -11 34 -22 37 -42 13z m31 -3 c0 -5
-4 -10 -10 -10 -5 0 -10 5 -10 10 0 6 5 10 10 10 6 0 10 -4 10 -10z m10 -30
c0 -5 -4 -10 -9 -10 -6 0 -13 5 -16 10 -3 6 1 10 9 10 9 0 16 -4 16 -10z"/>
<path d="M2200 5774 c0 -8 5 -12 10 -9 6 3 10 10 10 16 0 5 -4 9 -10 9 -5 0
-10 -7 -10 -16z"/>
<path d="M2975 2689 c-4 -6 -5 -12 -2 -15 2 -3 7 2 10 11 7 17 1 20 -8 4z"/>
<path d="M4528 1798 c1 -123 4 -241 5 -263 2 -22 4 68 4 200 1 132 -2 250 -5
263 -4 13 -6 -77 -4 -200z"/>
<path d="M4406 909 c-8 -42 -8 -84 1 -75 7 7 16 106 9 106 -2 0 -6 -14 -10
-31z"/>
<path d="M5070 6540 c-9 -6 -10 -10 -3 -10 6 0 15 5 18 10 8 12 4 12 -15 0z"/>
<path d="M2217 6122 c-15 -15 -27 -31 -27 -36 0 -11 40 19 56 43 22 30 2 26
-29 -7z"/>
<path d="M6000 5300 c0 -8 5 -22 10 -30 9 -13 10 -13 10 0 0 8 -5 22 -10 30
-9 13 -10 13 -10 0z"/>
<path d="M4212 4890 c0 -14 2 -19 5 -12 2 6 2 18 0 25 -3 6 -5 1 -5 -13z"/>
<path d="M6043 4655 c0 -27 2 -38 4 -22 2 15 2 37 0 50 -2 12 -4 0 -4 -28z"/>
<path d="M3000 4679 c0 -5 5 -7 10 -4 6 3 10 8 10 11 0 2 -4 4 -10 4 -5 0 -10
-5 -10 -11z"/>
<path d="M2600 4496 c19 -18 37 -32 39 -30 7 6 -51 64 -63 64 -6 0 5 -15 24
-34z"/>
<path d="M3627 3853 c-4 -3 -7 -11 -7 -17 0 -6 5 -5 12 2 6 6 9 14 7 17 -3 3
-9 2 -12 -2z"/>
<path d="M3600 3785 c0 -8 5 -15 10 -15 6 0 10 7 10 15 0 8 -4 15 -10 15 -5 0
-10 -7 -10 -15z"/>
<path d="M2652 1690 c0 -19 2 -27 5 -17 2 9 2 25 0 35 -3 9 -5 1 -5 -18z"/>
<path d="M2643 900 c0 -25 2 -35 4 -22 2 12 2 32 0 45 -2 12 -4 2 -4 -23z"/>
<path d="M2911 714 c0 -11 3 -14 6 -6 3 7 2 16 -1 19 -3 4 -6 -2 -5 -13z"/>
<path d="M4516 205 c-9 -26 -7 -32 5 -12 6 10 9 21 6 23 -2 3 -7 -2 -11 -11z"/>
</g>
</svg>
